  0
SECTION
  2
HEADER
  9
$ANGBASE
  50
0.0
  9
$ANGDIR
  70
1
  9
$MEASUREMENT
  70
1
  0
ENDSEC
  0
SECTION
  2
TABLES
  0
TABLE
  2
LTYPE
  70
4
  0
LTYPE
  5
40F
  2
CONTINUOUS
  70
0
  3
Solid line
  72
65
  73
0
  40
0.0
  0
LTYPE
  5
410
  2
DASHDOT
 70
0
  3
Dash Dot ____ _ ____ _
 72
65
 73
4
 40
2.0
 49
1.25
 49
-0.25
 49
0.25
 49
-0.25
  0
LTYPE
  5
411
  2
DASHED
 70
0
  3
Dashed __ __ __ __ __
 72
65
 73
2
 40
0.75
 49
0.5
 49
-0.25
  0
LTYPE
  5
43B
  2
DOTTED
 70
0
  3
Dotted .  .  .  .
 72
65
 73
2
 40
0.2
 49
0.0
 49
-0.2
  0
ENDTAB
  0
TABLE
  2
STYLE
  70
4
  0
STYLE
  2
KICAD
  70
0
  40
0
  41
1
  42
1
  50
0
  71
0
  3
isocp.shx
  0
STYLE
  2
KICADB
  70
0
  40
0
  41
1
  42
1
  50
0
  71
0
  3
isocp.shx
  0
STYLE
  2
KICADI
  70
0
  40
0
  41
1
  42
1
  50
15
  71
0
  3
isocp.shx
  0
STYLE
  2
KICADBI
  70
0
  40
0
  41
1
  42
1
  50
15
  71
0
  3
isocp.shx
  0
ENDTAB
  0
TABLE
  2
LAYER
  70
1
  0
LAYER
  2
BLACK
  70
0
  62
7
  6
CONTINUOUS
  0
ENDTAB
  0
ENDSEC
  0
SECTION
  2
ENTITIES
0
LINE
8
BLACK
6
CONTINUOUS
10
101.006
20
-48.6739
11
102.411
21
-48.7306
0
LINE
8
BLACK
6
CONTINUOUS
10
102.411
20
-48.7306
11
103.814
21
-48.8254
0
LINE
8
BLACK
6
CONTINUOUS
10
103.814
20
-48.8254
11
105.213
21
-48.9583
0
LINE
8
BLACK
6
CONTINUOUS
10
105.213
20
-48.9583
11
106.609
21
-49.1293
0
LINE
8
BLACK
6
CONTINUOUS
10
106.609
20
-49.1293
11
107.999
21
-49.3381
0
LINE
8
BLACK
6
CONTINUOUS
10
107.999
20
-49.3381
11
109.383
21
-49.5847
0
LINE
8
BLACK
6
CONTINUOUS
10
109.383
20
-49.5847
11
110.76
21
-49.8689
0
LINE
8
BLACK
6
CONTINUOUS
10
110.76
20
-49.8689
11
112.128
21
-50.1904
0
LINE
8
BLACK
6
CONTINUOUS
10
112.128
20
-50.1904
11
113.488
21
-50.549
0
LINE
8
BLACK
6
CONTINUOUS
10
113.488
20
-50.549
11
114.837
21
-50.9445
0
LINE
8
BLACK
6
CONTINUOUS
10
114.837
20
-50.9445
11
116.175
21
-51.3765
0
LINE
8
BLACK
6
CONTINUOUS
10
116.175
20
-51.3765
11
117.5
21
-51.8448
0
LINE
8
BLACK
6
CONTINUOUS
10
117.5
20
-51.8448
11
118.813
21
-52.3489
0
LINE
8
BLACK
6
CONTINUOUS
10
118.813
20
-52.3489
11
120.111
21
-52.8886
0
LINE
8
BLACK
6
CONTINUOUS
10
120.111
20
-52.8886
11
121.394
21
-53.4633
0
LINE
8
BLACK
6
CONTINUOUS
10
121.394
20
-53.4633
11
121.394
21
-53.4636
0
LINE
8
BLACK
6
CONTINUOUS
10
121.394
20
-53.4636
11
121.394
21
-53.4636
0
LINE
8
BLACK
6
CONTINUOUS
10
121.394
20
-53.4636
11
121.636
21
-53.6
0
LINE
8
BLACK
6
CONTINUOUS
10
121.636
20
-53.6
11
121.859
21
-53.7659
0
LINE
8
BLACK
6
CONTINUOUS
10
121.859
20
-53.7659
11
122.058
21
-53.9589
0
LINE
8
BLACK
6
CONTINUOUS
10
122.058
20
-53.9589
11
122.231
21
-54.1757
0
LINE
8
BLACK
6
CONTINUOUS
10
122.231
20
-54.1757
11
122.376
21
-54.4128
0
LINE
8
BLACK
6
CONTINUOUS
10
122.376
20
-54.4128
11
122.489
21
-54.6663
0
LINE
8
BLACK
6
CONTINUOUS
10
122.489
20
-54.6663
11
122.568
21
-54.9322
0
LINE
8
BLACK
6
CONTINUOUS
10
122.568
20
-54.9322
11
122.614
21
-55.206
0
LINE
8
BLACK
6
CONTINUOUS
10
122.614
20
-55.206
11
122.624
21
-55.4834
0
LINE
8
BLACK
6
CONTINUOUS
10
122.624
20
-55.4834
11
122.598
21
-55.7598
0
LINE
8
BLACK
6
CONTINUOUS
10
122.598
20
-55.7598
11
122.538
21
-56.0307
0
LINE
8
BLACK
6
CONTINUOUS
10
122.538
20
-56.0307
11
122.444
21
-56.2917
0
LINE
8
BLACK
6
CONTINUOUS
10
122.444
20
-56.2917
11
122.319
21
-56.5351
0
LINE
8
BLACK
6
CONTINUOUS
10
122.319
20
-56.5351
11
122.319
21
-56.5353
0
LINE
8
BLACK
6
CONTINUOUS
10
122.319
20
-56.5353
11
121.545
21
-58.0807
0
LINE
8
BLACK
6
CONTINUOUS
10
121.545
20
-58.0807
11
121.54
21
-58.0845
0
LINE
8
BLACK
6
CONTINUOUS
10
121.54
20
-58.0845
11
121.48
21
-58.278
0
LINE
8
BLACK
6
CONTINUOUS
10
121.48
20
-58.278
11
121.445
21
-58.4876
0
LINE
8
BLACK
6
CONTINUOUS
10
121.445
20
-58.4876
11
121.44
21
-58.7
0
LINE
8
BLACK
6
CONTINUOUS
10
121.44
20
-58.7
11
121.463
21
-58.9111
0
LINE
8
BLACK
6
CONTINUOUS
10
121.463
20
-58.9111
11
121.516
21
-59.117
0
LINE
8
BLACK
6
CONTINUOUS
10
121.516
20
-59.117
11
121.596
21
-59.3137
0
LINE
8
BLACK
6
CONTINUOUS
10
121.596
20
-59.3137
11
121.703
21
-59.4976
0
LINE
8
BLACK
6
CONTINUOUS
10
121.703
20
-59.4976
11
121.833
21
-59.6651
0
LINE
8
BLACK
6
CONTINUOUS
10
121.833
20
-59.6651
11
121.986
21
-59.813
0
LINE
8
BLACK
6
CONTINUOUS
10
121.986
20
-59.813
11
122.15
21
-59.9335
0
LINE
8
BLACK
6
CONTINUOUS
10
122.15
20
-59.9335
11
122.157
21
-59.9343
0
LINE
8
BLACK
6
CONTINUOUS
10
122.157
20
-59.9343
11
122.157
21
-59.9343
0
LINE
8
BLACK
6
CONTINUOUS
10
122.157
20
-59.9343
11
123.183
21
-60.5367
0
LINE
8
BLACK
6
CONTINUOUS
10
123.183
20
-60.5367
11
124.195
21
-61.1637
0
LINE
8
BLACK
6
CONTINUOUS
10
124.195
20
-61.1637
11
125.191
21
-61.8149
0
LINE
8
BLACK
6
CONTINUOUS
10
125.191
20
-61.8149
11
126.171
21
-62.4899
0
LINE
8
BLACK
6
CONTINUOUS
10
126.171
20
-62.4899
11
126.171
21
-62.4899
0
LINE
8
BLACK
6
CONTINUOUS
10
126.171
20
-62.4899
11
126.172
21
-62.4915
0
LINE
8
BLACK
6
CONTINUOUS
10
126.172
20
-62.4915
11
126.173
21
-62.492
0
LINE
8
BLACK
6
CONTINUOUS
10
126.173
20
-62.492
11
126.179
21
-62.5018
0
LINE
8
BLACK
6
CONTINUOUS
10
126.179
20
-62.5018
11
126.516
21
-62.7541
0
LINE
8
BLACK
6
CONTINUOUS
10
126.516
20
-62.7541
11
126.883
21
-62.9816
0
LINE
8
BLACK
6
CONTINUOUS
10
126.883
20
-62.9816
11
127.268
21
-63.1764
0
LINE
8
BLACK
6
CONTINUOUS
10
127.268
20
-63.1764
11
127.668
21
-63.3369
0
LINE
8
BLACK
6
CONTINUOUS
10
127.668
20
-63.3369
11
128.081
21
-63.4621
0
LINE
8
BLACK
6
CONTINUOUS
10
128.081
20
-63.4621
11
128.503
21
-63.551
0
LINE
8
BLACK
6
CONTINUOUS
10
128.503
20
-63.551
11
128.932
21
-63.6028
0
LINE
8
BLACK
6
CONTINUOUS
10
128.932
20
-63.6028
11
129.363
21
-63.6172
0
LINE
8
BLACK
6
CONTINUOUS
10
129.363
20
-63.6172
11
129.794
21
-63.5942
0
LINE
8
BLACK
6
CONTINUOUS
10
129.794
20
-63.5942
11
130.221
21
-63.5338
0
LINE
8
BLACK
6
CONTINUOUS
10
130.221
20
-63.5338
11
130.641
21
-63.4365
0
LINE
8
BLACK
6
CONTINUOUS
10
130.641
20
-63.4365
11
131.052
21
-63.303
0
LINE
8
BLACK
6
CONTINUOUS
10
131.052
20
-63.303
11
131.449
21
-63.1344
0
LINE
8
BLACK
6
CONTINUOUS
10
131.449
20
-63.1344
11
131.83
21
-62.932
0
LINE
8
BLACK
6
CONTINUOUS
10
131.83
20
-62.932
11
132.192
21
-62.6972
0
LINE
8
BLACK
6
CONTINUOUS
10
132.192
20
-62.6972
11
132.532
21
-62.4319
0
LINE
8
BLACK
6
CONTINUOUS
10
132.532
20
-62.4319
11
132.841
21
-62.145
0
LINE
8
BLACK
6
CONTINUOUS
10
132.841
20
-62.145
11
132.845
21
-62.1347
0
LINE
8
BLACK
6
CONTINUOUS
10
132.845
20
-62.1347
11
132.845
21
-62.1346
0
LINE
8
BLACK
6
CONTINUOUS
10
132.845
20
-62.1346
11
132.845
21
-62.1344
0
LINE
8
BLACK
6
CONTINUOUS
10
132.845
20
-62.1344
11
133.112
21
-61.8934
0
LINE
8
BLACK
6
CONTINUOUS
10
133.112
20
-61.8934
11
133.402
21
-61.6805
0
LINE
8
BLACK
6
CONTINUOUS
10
133.402
20
-61.6805
11
133.712
21
-61.4981
0
LINE
8
BLACK
6
CONTINUOUS
10
133.712
20
-61.4981
11
134.038
21
-61.3479
0
LINE
8
BLACK
6
CONTINUOUS
10
134.038
20
-61.3479
11
134.379
21
-61.2316
0
LINE
8
BLACK
6
CONTINUOUS
10
134.379
20
-61.2316
11
134.729
21
-61.1503
0
LINE
8
BLACK
6
CONTINUOUS
10
134.729
20
-61.1503
11
135.086
21
-61.1049
0
LINE
8
BLACK
6
CONTINUOUS
10
135.086
20
-61.1049
11
135.445
21
-61.0958
0
LINE
8
BLACK
6
CONTINUOUS
10
135.445
20
-61.0958
11
135.804
21
-61.1231
0
LINE
8
BLACK
6
CONTINUOUS
10
135.804
20
-61.1231
11
136.158
21
-61.1865
0
LINE
8
BLACK
6
CONTINUOUS
10
136.158
20
-61.1865
11
136.504
21
-61.2855
0
LINE
8
BLACK
6
CONTINUOUS
10
136.504
20
-61.2855
11
136.837
21
-61.4189
0
LINE
8
BLACK
6
CONTINUOUS
10
136.837
20
-61.4189
11
137.156
21
-61.5854
0
LINE
8
BLACK
6
CONTINUOUS
10
137.156
20
-61.5854
11
137.457
21
-61.7833
0
LINE
8
BLACK
6
CONTINUOUS
10
137.457
20
-61.7833
11
137.735
21
-62.0105
0
LINE
8
BLACK
6
CONTINUOUS
10
137.735
20
-62.0105
11
137.989
21
-62.2648
0
LINE
8
BLACK
6
CONTINUOUS
10
137.989
20
-62.2648
11
138.217
21
-62.5435
0
LINE
8
BLACK
6
CONTINUOUS
10
138.217
20
-62.5435
11
138.415
21
-62.8438
0
LINE
8
BLACK
6
CONTINUOUS
10
138.415
20
-62.8438
11
138.581
21
-63.1625
0
LINE
8
BLACK
6
CONTINUOUS
10
138.581
20
-63.1625
11
138.715
21
-63.4965
0
LINE
8
BLACK
6
CONTINUOUS
10
138.715
20
-63.4965
11
138.813
21
-63.8422
0
LINE
8
BLACK
6
CONTINUOUS
10
138.813
20
-63.8422
11
138.877
21
-64.1962
0
LINE
8
BLACK
6
CONTINUOUS
10
138.877
20
-64.1962
11
138.904
21
-64.5547
0
LINE
8
BLACK
6
CONTINUOUS
10
138.904
20
-64.5547
11
138.895
21
-64.9142
0
LINE
8
BLACK
6
CONTINUOUS
10
138.895
20
-64.9142
11
138.85
21
-65.271
0
LINE
8
BLACK
6
CONTINUOUS
10
138.85
20
-65.271
11
138.768
21
-65.6213
0
LINE
8
BLACK
6
CONTINUOUS
10
138.768
20
-65.6213
11
138.652
21
-65.9615
0
LINE
8
BLACK
6
CONTINUOUS
10
138.652
20
-65.9615
11
138.502
21
-66.2883
0
LINE
8
BLACK
6
CONTINUOUS
10
138.502
20
-66.2883
11
138.319
21
-66.5982
0
LINE
8
BLACK
6
CONTINUOUS
10
138.319
20
-66.5982
11
138.107
21
-66.8881
0
LINE
8
BLACK
6
CONTINUOUS
10
138.107
20
-66.8881
11
137.866
21
-67.1549
0
LINE
8
BLACK
6
CONTINUOUS
10
137.866
20
-67.1549
11
137.856
21
-67.159
0
LINE
8
BLACK
6
CONTINUOUS
10
137.856
20
-67.159
11
137.573
21
-67.4676
0
LINE
8
BLACK
6
CONTINUOUS
10
137.573
20
-67.4676
11
137.311
21
-67.8073
0
LINE
8
BLACK
6
CONTINUOUS
10
137.311
20
-67.8073
11
137.08
21
-68.1684
0
LINE
8
BLACK
6
CONTINUOUS
10
137.08
20
-68.1684
11
136.881
21
-68.5481
0
LINE
8
BLACK
6
CONTINUOUS
10
136.881
20
-68.5481
11
136.716
21
-68.9435
0
LINE
8
BLACK
6
CONTINUOUS
10
136.716
20
-68.9435
11
136.586
21
-69.3518
0
LINE
8
BLACK
6
CONTINUOUS
10
136.586
20
-69.3518
11
136.491
21
-69.7698
0
LINE
8
BLACK
6
CONTINUOUS
10
136.491
20
-69.7698
11
136.433
21
-70.1944
0
LINE
8
BLACK
6
CONTINUOUS
10
136.433
20
-70.1944
11
136.411
21
-70.6225
0
LINE
8
BLACK
6
CONTINUOUS
10
136.411
20
-70.6225
11
136.427
21
-71.0509
0
LINE
8
BLACK
6
CONTINUOUS
10
136.427
20
-71.0509
11
136.48
21
-71.4762
0
LINE
8
BLACK
6
CONTINUOUS
10
136.48
20
-71.4762
11
136.569
21
-71.8955
0
LINE
8
BLACK
6
CONTINUOUS
10
136.569
20
-71.8955
11
136.694
21
-72.3054
0
LINE
8
BLACK
6
CONTINUOUS
10
136.694
20
-72.3054
11
136.854
21
-72.703
0
LINE
8
BLACK
6
CONTINUOUS
10
136.854
20
-72.703
11
137.048
21
-73.0853
0
LINE
8
BLACK
6
CONTINUOUS
10
137.048
20
-73.0853
11
137.274
21
-73.4493
0
LINE
8
BLACK
6
CONTINUOUS
10
137.274
20
-73.4493
11
137.525
21
-73.7845
0
LINE
8
BLACK
6
CONTINUOUS
10
137.525
20
-73.7845
11
137.535
21
-73.7896
0
LINE
8
BLACK
6
CONTINUOUS
10
137.535
20
-73.7896
11
137.535
21
-73.7915
0
LINE
8
BLACK
6
CONTINUOUS
10
137.535
20
-73.7915
11
137.537
21
-73.7926
0
LINE
8
BLACK
6
CONTINUOUS
10
137.537
20
-73.7926
11
137.537
21
-73.7926
0
LINE
8
BLACK
6
CONTINUOUS
10
137.537
20
-73.7926
11
138.282
21
-74.893
0
LINE
8
BLACK
6
CONTINUOUS
10
138.282
20
-74.893
11
138.994
21
-76.0145
0
LINE
8
BLACK
6
CONTINUOUS
10
138.994
20
-76.0145
11
139.674
21
-77.1562
0
LINE
8
BLACK
6
CONTINUOUS
10
139.674
20
-77.1562
11
140.32
21
-78.3171
0
LINE
8
BLACK
6
CONTINUOUS
10
140.32
20
-78.3171
11
140.932
21
-79.4963
0
LINE
8
BLACK
6
CONTINUOUS
10
140.932
20
-79.4963
11
141.51
21
-80.6928
0
LINE
8
BLACK
6
CONTINUOUS
10
141.51
20
-80.6928
11
142.053
21
-81.9056
0
LINE
8
BLACK
6
CONTINUOUS
10
142.053
20
-81.9056
11
142.56
21
-83.1335
0
LINE
8
BLACK
6
CONTINUOUS
10
142.56
20
-83.1335
11
143.032
21
-84.3757
0
LINE
8
BLACK
6
CONTINUOUS
10
143.032
20
-84.3757
11
143.467
21
-85.6311
0
LINE
8
BLACK
6
CONTINUOUS
10
143.467
20
-85.6311
11
143.866
21
-86.8985
0
LINE
8
BLACK
6
CONTINUOUS
10
143.866
20
-86.8985
11
144.227
21
-88.177
0
LINE
8
BLACK
6
CONTINUOUS
10
144.227
20
-88.177
11
144.552
21
-89.4655
0
LINE
8
BLACK
6
CONTINUOUS
10
144.552
20
-89.4655
11
144.839
21
-90.7628
0
LINE
8
BLACK
6
CONTINUOUS
10
144.839
20
-90.7628
11
145.088
21
-92.0679
0
LINE
8
BLACK
6
CONTINUOUS
10
145.088
20
-92.0679
11
145.299
21
-93.3797
0
LINE
8
BLACK
6
CONTINUOUS
10
145.299
20
-93.3797
11
145.472
21
-94.697
0
LINE
8
BLACK
6
CONTINUOUS
10
145.472
20
-94.697
11
145.607
21
-96.0189
0
LINE
8
BLACK
6
CONTINUOUS
10
145.607
20
-96.0189
11
145.703
21
-97.344
0
LINE
8
BLACK
6
CONTINUOUS
10
145.703
20
-97.344
11
145.761
21
-98.6715
0
LINE
8
BLACK
6
CONTINUOUS
10
145.761
20
-98.6715
11
145.78
21
-100
0
LINE
8
BLACK
6
CONTINUOUS
10
145.78
20
-100
11
145.761
21
-101.329
0
LINE
8
BLACK
6
CONTINUOUS
10
145.761
20
-101.329
11
145.703
21
-102.656
0
LINE
8
BLACK
6
CONTINUOUS
10
145.703
20
-102.656
11
145.607
21
-103.981
0
LINE
8
BLACK
6
CONTINUOUS
10
145.607
20
-103.981
11
145.472
21
-105.303
0
LINE
8
BLACK
6
CONTINUOUS
10
145.472
20
-105.303
11
145.299
21
-106.62
0
LINE
8
BLACK
6
CONTINUOUS
10
145.299
20
-106.62
11
145.088
21
-107.932
0
LINE
8
BLACK
6
CONTINUOUS
10
145.088
20
-107.932
11
144.839
21
-109.237
0
LINE
8
BLACK
6
CONTINUOUS
10
144.839
20
-109.237
11
144.552
21
-110.535
0
LINE
8
BLACK
6
CONTINUOUS
10
144.552
20
-110.535
11
144.227
21
-111.823
0
LINE
8
BLACK
6
CONTINUOUS
10
144.227
20
-111.823
11
143.866
21
-113.101
0
LINE
8
BLACK
6
CONTINUOUS
10
143.866
20
-113.101
11
143.467
21
-114.369
0
LINE
8
BLACK
6
CONTINUOUS
10
143.467
20
-114.369
11
143.032
21
-115.624
0
LINE
8
BLACK
6
CONTINUOUS
10
143.032
20
-115.624
11
142.56
21
-116.866
0
LINE
8
BLACK
6
CONTINUOUS
10
142.56
20
-116.866
11
142.053
21
-118.094
0
LINE
8
BLACK
6
CONTINUOUS
10
142.053
20
-118.094
11
141.51
21
-119.307
0
LINE
8
BLACK
6
CONTINUOUS
10
141.51
20
-119.307
11
140.932
21
-120.504
0
LINE
8
BLACK
6
CONTINUOUS
10
140.932
20
-120.504
11
140.32
21
-121.683
0
LINE
8
BLACK
6
CONTINUOUS
10
140.32
20
-121.683
11
139.674
21
-122.844
0
LINE
8
BLACK
6
CONTINUOUS
10
139.674
20
-122.844
11
138.994
21
-123.986
0
LINE
8
BLACK
6
CONTINUOUS
10
138.994
20
-123.986
11
138.282
21
-125.107
0
LINE
8
BLACK
6
CONTINUOUS
10
138.282
20
-125.107
11
137.537
21
-126.207
0
LINE
8
BLACK
6
CONTINUOUS
10
137.537
20
-126.207
11
137.537
21
-126.207
0
LINE
8
BLACK
6
CONTINUOUS
10
137.537
20
-126.207
11
137.535
21
-126.208
0
LINE
8
BLACK
6
CONTINUOUS
10
137.535
20
-126.208
11
137.535
21
-126.21
0
LINE
8
BLACK
6
CONTINUOUS
10
137.535
20
-126.21
11
137.525
21
-126.216
0
LINE
8
BLACK
6
CONTINUOUS
10
137.525
20
-126.216
11
137.274
21
-126.551
0
LINE
8
BLACK
6
CONTINUOUS
10
137.274
20
-126.551
11
137.048
21
-126.915
0
LINE
8
BLACK
6
CONTINUOUS
10
137.048
20
-126.915
11
136.854
21
-127.297
0
LINE
8
BLACK
6
CONTINUOUS
10
136.854
20
-127.297
11
136.694
21
-127.695
0
LINE
8
BLACK
6
CONTINUOUS
10
136.694
20
-127.695
11
136.569
21
-128.105
0
LINE
8
BLACK
6
CONTINUOUS
10
136.569
20
-128.105
11
136.48
21
-128.524
0
LINE
8
BLACK
6
CONTINUOUS
10
136.48
20
-128.524
11
136.427
21
-128.949
0
LINE
8
BLACK
6
CONTINUOUS
10
136.427
20
-128.949
11
136.411
21
-129.377
0
LINE
8
BLACK
6
CONTINUOUS
10
136.411
20
-129.377
11
136.433
21
-129.806
0
LINE
8
BLACK
6
CONTINUOUS
10
136.433
20
-129.806
11
136.491
21
-130.23
0
LINE
8
BLACK
6
CONTINUOUS
10
136.491
20
-130.23
11
136.586
21
-130.648
0
LINE
8
BLACK
6
CONTINUOUS
10
136.586
20
-130.648
11
136.716
21
-131.056
0
LINE
8
BLACK
6
CONTINUOUS
10
136.716
20
-131.056
11
136.881
21
-131.452
0
LINE
8
BLACK
6
CONTINUOUS
10
136.881
20
-131.452
11
137.08
21
-131.832
0
LINE
8
BLACK
6
CONTINUOUS
10
137.08
20
-131.832
11
137.311
21
-132.193
0
LINE
8
BLACK
6
CONTINUOUS
10
137.311
20
-132.193
11
137.573
21
-132.532
0
LINE
8
BLACK
6
CONTINUOUS
10
137.573
20
-132.532
11
137.856
21
-132.841
0
LINE
8
BLACK
6
CONTINUOUS
10
137.856
20
-132.841
11
137.866
21
-132.845
0
LINE
8
BLACK
6
CONTINUOUS
10
137.866
20
-132.845
11
138.107
21
-133.112
0
LINE
8
BLACK
6
CONTINUOUS
10
138.107
20
-133.112
11
138.319
21
-133.402
0
LINE
8
BLACK
6
CONTINUOUS
10
138.319
20
-133.402
11
138.502
21
-133.712
0
LINE
8
BLACK
6
CONTINUOUS
10
138.502
20
-133.712
11
138.652
21
-134.038
0
LINE
8
BLACK
6
CONTINUOUS
10
138.652
20
-134.038
11
138.768
21
-134.379
0
LINE
8
BLACK
6
CONTINUOUS
10
138.768
20
-134.379
11
138.85
21
-134.729
0
LINE
8
BLACK
6
CONTINUOUS
10
138.85
20
-134.729
11
138.895
21
-135.086
0
LINE
8
BLACK
6
CONTINUOUS
10
138.895
20
-135.086
11
138.904
21
-135.445
0
LINE
8
BLACK
6
CONTINUOUS
10
138.904
20
-135.445
11
138.877
21
-135.804
0
LINE
8
BLACK
6
CONTINUOUS
10
138.877
20
-135.804
11
138.813
21
-136.158
0
LINE
8
BLACK
6
CONTINUOUS
10
138.813
20
-136.158
11
138.715
21
-136.504
0
LINE
8
BLACK
6
CONTINUOUS
10
138.715
20
-136.504
11
138.581
21
-136.837
0
LINE
8
BLACK
6
CONTINUOUS
10
138.581
20
-136.837
11
138.415
21
-137.156
0
LINE
8
BLACK
6
CONTINUOUS
10
138.415
20
-137.156
11
138.217
21
-137.457
0
LINE
8
BLACK
6
CONTINUOUS
10
138.217
20
-137.457
11
137.989
21
-137.735
0
LINE
8
BLACK
6
CONTINUOUS
10
137.989
20
-137.735
11
137.735
21
-137.989
0
LINE
8
BLACK
6
CONTINUOUS
10
137.735
20
-137.989
11
137.457
21
-138.217
0
LINE
8
BLACK
6
CONTINUOUS
10
137.457
20
-138.217
11
137.156
21
-138.415
0
LINE
8
BLACK
6
CONTINUOUS
10
137.156
20
-138.415
11
136.837
21
-138.581
0
LINE
8
BLACK
6
CONTINUOUS
10
136.837
20
-138.581
11
136.504
21
-138.715
0
LINE
8
BLACK
6
CONTINUOUS
10
136.504
20
-138.715
11
136.158
21
-138.813
0
LINE
8
BLACK
6
CONTINUOUS
10
136.158
20
-138.813
11
135.804
21
-138.877
0
LINE
8
BLACK
6
CONTINUOUS
10
135.804
20
-138.877
11
135.445
21
-138.904
0
LINE
8
BLACK
6
CONTINUOUS
10
135.445
20
-138.904
11
135.086
21
-138.895
0
LINE
8
BLACK
6
CONTINUOUS
10
135.086
20
-138.895
11
134.729
21
-138.85
0
LINE
8
BLACK
6
CONTINUOUS
10
134.729
20
-138.85
11
134.379
21
-138.768
0
LINE
8
BLACK
6
CONTINUOUS
10
134.379
20
-138.768
11
134.038
21
-138.652
0
LINE
8
BLACK
6
CONTINUOUS
10
134.038
20
-138.652
11
133.712
21
-138.502
0
LINE
8
BLACK
6
CONTINUOUS
10
133.712
20
-138.502
11
133.402
21
-138.319
0
LINE
8
BLACK
6
CONTINUOUS
10
133.402
20
-138.319
11
133.112
21
-138.107
0
LINE
8
BLACK
6
CONTINUOUS
10
133.112
20
-138.107
11
132.845
21
-137.866
0
LINE
8
BLACK
6
CONTINUOUS
10
132.845
20
-137.866
11
132.841
21
-137.856
0
LINE
8
BLACK
6
CONTINUOUS
10
132.841
20
-137.856
11
132.532
21
-137.573
0
LINE
8
BLACK
6
CONTINUOUS
10
132.532
20
-137.573
11
132.193
21
-137.311
0
LINE
8
BLACK
6
CONTINUOUS
10
132.193
20
-137.311
11
131.832
21
-137.08
0
LINE
8
BLACK
6
CONTINUOUS
10
131.832
20
-137.08
11
131.452
21
-136.881
0
LINE
8
BLACK
6
CONTINUOUS
10
131.452
20
-136.881
11
131.056
21
-136.716
0
LINE
8
BLACK
6
CONTINUOUS
10
131.056
20
-136.716
11
130.648
21
-136.586
0
LINE
8
BLACK
6
CONTINUOUS
10
130.648
20
-136.586
11
130.23
21
-136.491
0
LINE
8
BLACK
6
CONTINUOUS
10
130.23
20
-136.491
11
129.806
21
-136.433
0
LINE
8
BLACK
6
CONTINUOUS
10
129.806
20
-136.433
11
129.377
21
-136.411
0
LINE
8
BLACK
6
CONTINUOUS
10
129.377
20
-136.411
11
128.949
21
-136.427
0
LINE
8
BLACK
6
CONTINUOUS
10
128.949
20
-136.427
11
128.524
21
-136.48
0
LINE
8
BLACK
6
CONTINUOUS
10
128.524
20
-136.48
11
128.105
21
-136.569
0
LINE
8
BLACK
6
CONTINUOUS
10
128.105
20
-136.569
11
127.695
21
-136.694
0
LINE
8
BLACK
6
CONTINUOUS
10
127.695
20
-136.694
11
127.297
21
-136.854
0
LINE
8
BLACK
6
CONTINUOUS
10
127.297
20
-136.854
11
126.915
21
-137.048
0
LINE
8
BLACK
6
CONTINUOUS
10
126.915
20
-137.048
11
126.551
21
-137.274
0
LINE
8
BLACK
6
CONTINUOUS
10
126.551
20
-137.274
11
126.216
21
-137.525
0
LINE
8
BLACK
6
CONTINUOUS
10
126.216
20
-137.525
11
126.21
21
-137.535
0
LINE
8
BLACK
6
CONTINUOUS
10
126.21
20
-137.535
11
126.208
21
-137.535
0
LINE
8
BLACK
6
CONTINUOUS
10
126.208
20
-137.535
11
126.207
21
-137.537
0
LINE
8
BLACK
6
CONTINUOUS
10
126.207
20
-137.537
11
126.207
21
-137.537
0
LINE
8
BLACK
6
CONTINUOUS
10
126.207
20
-137.537
11
125.107
21
-138.282
0
LINE
8
BLACK
6
CONTINUOUS
10
125.107
20
-138.282
11
123.986
21
-138.994
0
LINE
8
BLACK
6
CONTINUOUS
10
123.986
20
-138.994
11
122.844
21
-139.674
0
LINE
8
BLACK
6
CONTINUOUS
10
122.844
20
-139.674
11
121.683
21
-140.32
0
LINE
8
BLACK
6
CONTINUOUS
10
121.683
20
-140.32
11
120.504
21
-140.932
0
LINE
8
BLACK
6
CONTINUOUS
10
120.504
20
-140.932
11
119.307
21
-141.51
0
LINE
8
BLACK
6
CONTINUOUS
10
119.307
20
-141.51
11
118.094
21
-142.053
0
LINE
8
BLACK
6
CONTINUOUS
10
118.094
20
-142.053
11
116.866
21
-142.56
0
LINE
8
BLACK
6
CONTINUOUS
10
116.866
20
-142.56
11
115.624
21
-143.032
0
LINE
8
BLACK
6
CONTINUOUS
10
115.624
20
-143.032
11
114.369
21
-143.467
0
LINE
8
BLACK
6
CONTINUOUS
10
114.369
20
-143.467
11
113.101
21
-143.866
0
LINE
8
BLACK
6
CONTINUOUS
10
113.101
20
-143.866
11
111.823
21
-144.227
0
LINE
8
BLACK
6
CONTINUOUS
10
111.823
20
-144.227
11
110.535
21
-144.552
0
LINE
8
BLACK
6
CONTINUOUS
10
110.535
20
-144.552
11
109.237
21
-144.839
0
LINE
8
BLACK
6
CONTINUOUS
10
109.237
20
-144.839
11
107.932
21
-145.088
0
LINE
8
BLACK
6
CONTINUOUS
10
107.932
20
-145.088
11
106.62
21
-145.299
0
LINE
8
BLACK
6
CONTINUOUS
10
106.62
20
-145.299
11
105.303
21
-145.472
0
LINE
8
BLACK
6
CONTINUOUS
10
105.303
20
-145.472
11
103.981
21
-145.607
0
LINE
8
BLACK
6
CONTINUOUS
10
103.981
20
-145.607
11
102.656
21
-145.703
0
LINE
8
BLACK
6
CONTINUOUS
10
102.656
20
-145.703
11
101.329
21
-145.761
0
LINE
8
BLACK
6
CONTINUOUS
10
101.329
20
-145.761
11
100
21
-145.78
0
LINE
8
BLACK
6
CONTINUOUS
10
100
20
-145.78
11
98.6715
21
-145.761
0
LINE
8
BLACK
6
CONTINUOUS
10
98.6715
20
-145.761
11
97.344
21
-145.703
0
LINE
8
BLACK
6
CONTINUOUS
10
97.344
20
-145.703
11
96.0189
21
-145.607
0
LINE
8
BLACK
6
CONTINUOUS
10
96.0189
20
-145.607
11
94.697
21
-145.472
0
LINE
8
BLACK
6
CONTINUOUS
10
94.697
20
-145.472
11
93.3797
21
-145.299
0
LINE
8
BLACK
6
CONTINUOUS
10
93.3797
20
-145.299
11
92.0679
21
-145.088
0
LINE
8
BLACK
6
CONTINUOUS
10
92.0679
20
-145.088
11
90.7628
21
-144.839
0
LINE
8
BLACK
6
CONTINUOUS
10
90.7628
20
-144.839
11
89.4655
21
-144.552
0
LINE
8
BLACK
6
CONTINUOUS
10
89.4655
20
-144.552
11
88.177
21
-144.227
0
LINE
8
BLACK
6
CONTINUOUS
10
88.177
20
-144.227
11
86.8985
21
-143.866
0
LINE
8
BLACK
6
CONTINUOUS
10
86.8985
20
-143.866
11
85.6311
21
-143.467
0
LINE
8
BLACK
6
CONTINUOUS
10
85.6311
20
-143.467
11
84.3757
21
-143.032
0
LINE
8
BLACK
6
CONTINUOUS
10
84.3757
20
-143.032
11
83.1335
21
-142.56
0
LINE
8
BLACK
6
CONTINUOUS
10
83.1335
20
-142.56
11
81.9056
21
-142.053
0
LINE
8
BLACK
6
CONTINUOUS
10
81.9056
20
-142.053
11
80.6928
21
-141.51
0
LINE
8
BLACK
6
CONTINUOUS
10
80.6928
20
-141.51
11
79.4963
21
-140.932
0
LINE
8
BLACK
6
CONTINUOUS
10
79.4963
20
-140.932
11
78.3171
21
-140.32
0
LINE
8
BLACK
6
CONTINUOUS
10
78.3171
20
-140.32
11
77.1562
21
-139.674
0
LINE
8
BLACK
6
CONTINUOUS
10
77.1562
20
-139.674
11
76.0145
21
-138.994
0
LINE
8
BLACK
6
CONTINUOUS
10
76.0145
20
-138.994
11
74.893
21
-138.282
0
LINE
8
BLACK
6
CONTINUOUS
10
74.893
20
-138.282
11
73.7926
21
-137.537
0
LINE
8
BLACK
6
CONTINUOUS
10
73.7926
20
-137.537
11
73.7926
21
-137.537
0
LINE
8
BLACK
6
CONTINUOUS
10
73.7926
20
-137.537
11
73.7915
21
-137.535
0
LINE
8
BLACK
6
CONTINUOUS
10
73.7915
20
-137.535
11
73.7896
21
-137.535
0
LINE
8
BLACK
6
CONTINUOUS
10
73.7896
20
-137.535
11
73.7845
21
-137.525
0
LINE
8
BLACK
6
CONTINUOUS
10
73.7845
20
-137.525
11
73.4493
21
-137.274
0
LINE
8
BLACK
6
CONTINUOUS
10
73.4493
20
-137.274
11
73.0853
21
-137.048
0
LINE
8
BLACK
6
CONTINUOUS
10
73.0853
20
-137.048
11
72.703
21
-136.854
0
LINE
8
BLACK
6
CONTINUOUS
10
72.703
20
-136.854
11
72.3054
21
-136.694
0
LINE
8
BLACK
6
CONTINUOUS
10
72.3054
20
-136.694
11
71.8955
21
-136.569
0
LINE
8
BLACK
6
CONTINUOUS
10
71.8955
20
-136.569
11
71.4762
21
-136.48
0
LINE
8
BLACK
6
CONTINUOUS
10
71.4762
20
-136.48
11
71.0509
21
-136.427
0
LINE
8
BLACK
6
CONTINUOUS
10
71.0509
20
-136.427
11
70.6225
21
-136.411
0
LINE
8
BLACK
6
CONTINUOUS
10
70.6225
20
-136.411
11
70.1944
21
-136.433
0
LINE
8
BLACK
6
CONTINUOUS
10
70.1944
20
-136.433
11
69.7698
21
-136.491
0
LINE
8
BLACK
6
CONTINUOUS
10
69.7698
20
-136.491
11
69.3518
21
-136.586
0
LINE
8
BLACK
6
CONTINUOUS
10
69.3518
20
-136.586
11
68.9435
21
-136.716
0
LINE
8
BLACK
6
CONTINUOUS
10
68.9435
20
-136.716
11
68.5481
21
-136.881
0
LINE
8
BLACK
6
CONTINUOUS
10
68.5481
20
-136.881
11
68.1684
21
-137.08
0
LINE
8
BLACK
6
CONTINUOUS
10
68.1684
20
-137.08
11
67.8073
21
-137.311
0
LINE
8
BLACK
6
CONTINUOUS
10
67.8073
20
-137.311
11
67.4676
21
-137.573
0
LINE
8
BLACK
6
CONTINUOUS
10
67.4676
20
-137.573
11
67.159
21
-137.856
0
LINE
8
BLACK
6
CONTINUOUS
10
67.159
20
-137.856
11
67.1549
21
-137.866
0
LINE
8
BLACK
6
CONTINUOUS
10
67.1549
20
-137.866
11
66.8881
21
-138.107
0
LINE
8
BLACK
6
CONTINUOUS
10
66.8881
20
-138.107
11
66.5982
21
-138.319
0
LINE
8
BLACK
6
CONTINUOUS
10
66.5982
20
-138.319
11
66.2883
21
-138.502
0
LINE
8
BLACK
6
CONTINUOUS
10
66.2883
20
-138.502
11
65.9615
21
-138.652
0
LINE
8
BLACK
6
CONTINUOUS
10
65.9615
20
-138.652
11
65.6213
21
-138.768
0
LINE
8
BLACK
6
CONTINUOUS
10
65.6213
20
-138.768
11
65.271
21
-138.85
0
LINE
8
BLACK
6
CONTINUOUS
10
65.271
20
-138.85
11
64.9142
21
-138.895
0
LINE
8
BLACK
6
CONTINUOUS
10
64.9142
20
-138.895
11
64.5547
21
-138.904
0
LINE
8
BLACK
6
CONTINUOUS
10
64.5547
20
-138.904
11
64.1962
21
-138.877
0
LINE
8
BLACK
6
CONTINUOUS
10
64.1962
20
-138.877
11
63.8422
21
-138.813
0
LINE
8
BLACK
6
CONTINUOUS
10
63.8422
20
-138.813
11
63.4965
21
-138.715
0
LINE
8
BLACK
6
CONTINUOUS
10
63.4965
20
-138.715
11
63.1625
21
-138.581
0
LINE
8
BLACK
6
CONTINUOUS
10
63.1625
20
-138.581
11
62.8438
21
-138.415
0
LINE
8
BLACK
6
CONTINUOUS
10
62.8438
20
-138.415
11
62.5435
21
-138.217
0
LINE
8
BLACK
6
CONTINUOUS
10
62.5435
20
-138.217
11
62.2648
21
-137.989
0
LINE
8
BLACK
6
CONTINUOUS
10
62.2648
20
-137.989
11
62.0105
21
-137.735
0
LINE
8
BLACK
6
CONTINUOUS
10
62.0105
20
-137.735
11
61.7833
21
-137.457
0
LINE
8
BLACK
6
CONTINUOUS
10
61.7833
20
-137.457
11
61.5854
21
-137.156
0
LINE
8
BLACK
6
CONTINUOUS
10
61.5854
20
-137.156
11
61.4189
21
-136.837
0
LINE
8
BLACK
6
CONTINUOUS
10
61.4189
20
-136.837
11
61.2855
21
-136.504
0
LINE
8
BLACK
6
CONTINUOUS
10
61.2855
20
-136.504
11
61.1865
21
-136.158
0
LINE
8
BLACK
6
CONTINUOUS
10
61.1865
20
-136.158
11
61.1231
21
-135.804
0
LINE
8
BLACK
6
CONTINUOUS
10
61.1231
20
-135.804
11
61.0958
21
-135.445
0
LINE
8
BLACK
6
CONTINUOUS
10
61.0958
20
-135.445
11
61.1049
21
-135.086
0
LINE
8
BLACK
6
CONTINUOUS
10
61.1049
20
-135.086
11
61.1503
21
-134.729
0
LINE
8
BLACK
6
CONTINUOUS
10
61.1503
20
-134.729
11
61.2316
21
-134.379
0
LINE
8
BLACK
6
CONTINUOUS
10
61.2316
20
-134.379
11
61.3479
21
-134.038
0
LINE
8
BLACK
6
CONTINUOUS
10
61.3479
20
-134.038
11
61.4981
21
-133.712
0
LINE
8
BLACK
6
CONTINUOUS
10
61.4981
20
-133.712
11
61.6805
21
-133.402
0
LINE
8
BLACK
6
CONTINUOUS
10
61.6805
20
-133.402
11
61.8934
21
-133.112
0
LINE
8
BLACK
6
CONTINUOUS
10
61.8934
20
-133.112
11
62.1344
21
-132.845
0
LINE
8
BLACK
6
CONTINUOUS
10
62.1344
20
-132.845
11
62.1445
21
-132.841
0
LINE
8
BLACK
6
CONTINUOUS
10
62.1445
20
-132.841
11
62.4274
21
-132.532
0
LINE
8
BLACK
6
CONTINUOUS
10
62.4274
20
-132.532
11
62.6887
21
-132.193
0
LINE
8
BLACK
6
CONTINUOUS
10
62.6887
20
-132.193
11
62.9196
21
-131.832
0
LINE
8
BLACK
6
CONTINUOUS
10
62.9196
20
-131.832
11
63.1185
21
-131.452
0
LINE
8
BLACK
6
CONTINUOUS
10
63.1185
20
-131.452
11
63.2838
21
-131.056
0
LINE
8
BLACK
6
CONTINUOUS
10
63.2838
20
-131.056
11
63.4144
21
-130.648
0
LINE
8
BLACK
6
CONTINUOUS
10
63.4144
20
-130.648
11
63.5091
21
-130.23
0
LINE
8
BLACK
6
CONTINUOUS
10
63.5091
20
-130.23
11
63.5674
21
-129.806
0
LINE
8
BLACK
6
CONTINUOUS
10
63.5674
20
-129.806
11
63.5887
21
-129.377
0
LINE
8
BLACK
6
CONTINUOUS
10
63.5887
20
-129.377
11
63.573
21
-128.949
0
LINE
8
BLACK
6
CONTINUOUS
10
63.573
20
-128.949
11
63.5203
21
-128.524
0
LINE
8
BLACK
6
CONTINUOUS
10
63.5203
20
-128.524
11
63.4311
21
-128.105
0
LINE
8
BLACK
6
CONTINUOUS
10
63.4311
20
-128.105
11
63.3059
21
-127.695
0
LINE
8
BLACK
6
CONTINUOUS
10
63.3059
20
-127.695
11
63.1458
21
-127.297
0
LINE
8
BLACK
6
CONTINUOUS
10
63.1458
20
-127.297
11
62.9519
21
-126.915
0
LINE
8
BLACK
6
CONTINUOUS
10
62.9519
20
-126.915
11
62.7257
21
-126.551
0
LINE
8
BLACK
6
CONTINUOUS
10
62.7257
20
-126.551
11
62.4749
21
-126.216
0
LINE
8
BLACK
6
CONTINUOUS
10
62.4749
20
-126.216
11
62.4653
21
-126.21
0
LINE
8
BLACK
6
CONTINUOUS
10
62.4653
20
-126.21
11
62.4648
21
-126.208
0
LINE
8
BLACK
6
CONTINUOUS
10
62.4648
20
-126.208
11
62.463
21
-126.207
0
LINE
8
BLACK
6
CONTINUOUS
10
62.463
20
-126.207
11
62.463
21
-126.207
0
LINE
8
BLACK
6
CONTINUOUS
10
62.463
20
-126.207
11
61.7183
21
-125.107
0
LINE
8
BLACK
6
CONTINUOUS
10
61.7183
20
-125.107
11
61.0058
21
-123.986
0
LINE
8
BLACK
6
CONTINUOUS
10
61.0058
20
-123.986
11
60.3262
21
-122.844
0
LINE
8
BLACK
6
CONTINUOUS
10
60.3262
20
-122.844
11
59.68
21
-121.683
0
LINE
8
BLACK
6
CONTINUOUS
10
59.68
20
-121.683
11
59.0678
21
-120.504
0
LINE
8
BLACK
6
CONTINUOUS
10
59.0678
20
-120.504
11
58.49
21
-119.307
0
LINE
8
BLACK
6
CONTINUOUS
10
58.49
20
-119.307
11
57.9472
21
-118.094
0
LINE
8
BLACK
6
CONTINUOUS
10
57.9472
20
-118.094
11
57.4398
21
-116.866
0
LINE
8
BLACK
6
CONTINUOUS
10
57.4398
20
-116.866
11
56.9683
21
-115.624
0
LINE
8
BLACK
6
CONTINUOUS
10
56.9683
20
-115.624
11
56.533
21
-114.369
0
LINE
8
BLACK
6
CONTINUOUS
10
56.533
20
-114.369
11
56.1343
21
-113.101
0
LINE
8
BLACK
6
CONTINUOUS
10
56.1343
20
-113.101
11
55.7726
21
-111.823
0
LINE
8
BLACK
6
CONTINUOUS
10
55.7726
20
-111.823
11
55.4481
21
-110.535
0
LINE
8
BLACK
6
CONTINUOUS
10
55.4481
20
-110.535
11
55.1611
21
-109.237
0
LINE
8
BLACK
6
CONTINUOUS
10
55.1611
20
-109.237
11
54.912
21
-107.932
0
LINE
8
BLACK
6
CONTINUOUS
10
54.912
20
-107.932
11
54.7008
21
-106.62
0
LINE
8
BLACK
6
CONTINUOUS
10
54.7008
20
-106.62
11
54.5277
21
-105.303
0
LINE
8
BLACK
6
CONTINUOUS
10
54.5277
20
-105.303
11
54.393
21
-103.981
0
LINE
8
BLACK
6
CONTINUOUS
10
54.393
20
-103.981
11
54.2967
21
-102.656
0
LINE
8
BLACK
6
CONTINUOUS
10
54.2967
20
-102.656
11
54.2388
21
-101.329
0
LINE
8
BLACK
6
CONTINUOUS
10
54.2388
20
-101.329
11
54.2196
21
-100
0
LINE
8
BLACK
6
CONTINUOUS
10
54.2196
20
-100
11
54.2388
21
-98.6715
0
LINE
8
BLACK
6
CONTINUOUS
10
54.2388
20
-98.6715
11
54.2967
21
-97.344
0
LINE
8
BLACK
6
CONTINUOUS
10
54.2967
20
-97.344
11
54.393
21
-96.0189
0
LINE
8
BLACK
6
CONTINUOUS
10
54.393
20
-96.0189
11
54.5277
21
-94.697
0
LINE
8
BLACK
6
CONTINUOUS
10
54.5277
20
-94.697
11
54.7008
21
-93.3797
0
LINE
8
BLACK
6
CONTINUOUS
10
54.7008
20
-93.3797
11
54.912
21
-92.0679
0
LINE
8
BLACK
6
CONTINUOUS
10
54.912
20
-92.0679
11
55.1611
21
-90.7628
0
LINE
8
BLACK
6
CONTINUOUS
10
55.1611
20
-90.7628
11
55.4481
21
-89.4655
0
LINE
8
BLACK
6
CONTINUOUS
10
55.4481
20
-89.4655
11
55.7726
21
-88.177
0
LINE
8
BLACK
6
CONTINUOUS
10
55.7726
20
-88.177
11
56.1343
21
-86.8985
0
LINE
8
BLACK
6
CONTINUOUS
10
56.1343
20
-86.8985
11
56.533
21
-85.6311
0
LINE
8
BLACK
6
CONTINUOUS
10
56.533
20
-85.6311
11
56.9683
21
-84.3757
0
LINE
8
BLACK
6
CONTINUOUS
10
56.9683
20
-84.3757
11
57.4398
21
-83.1335
0
LINE
8
BLACK
6
CONTINUOUS
10
57.4398
20
-83.1335
11
57.9472
21
-81.9056
0
LINE
8
BLACK
6
CONTINUOUS
10
57.9472
20
-81.9056
11
58.49
21
-80.6928
0
LINE
8
BLACK
6
CONTINUOUS
10
58.49
20
-80.6928
11
59.0678
21
-79.4963
0
LINE
8
BLACK
6
CONTINUOUS
10
59.0678
20
-79.4963
11
59.68
21
-78.3171
0
LINE
8
BLACK
6
CONTINUOUS
10
59.68
20
-78.3171
11
60.3262
21
-77.1562
0
LINE
8
BLACK
6
CONTINUOUS
10
60.3262
20
-77.1562
11
61.0058
21
-76.0145
0
LINE
8
BLACK
6
CONTINUOUS
10
61.0058
20
-76.0145
11
61.7183
21
-74.893
0
LINE
8
BLACK
6
CONTINUOUS
10
61.7183
20
-74.893
11
62.463
21
-73.7926
0
LINE
8
BLACK
6
CONTINUOUS
10
62.463
20
-73.7926
11
62.463
21
-73.7926
0
LINE
8
BLACK
6
CONTINUOUS
10
62.463
20
-73.7926
11
62.4648
21
-73.7915
0
LINE
8
BLACK
6
CONTINUOUS
10
62.4648
20
-73.7915
11
62.4653
21
-73.7896
0
LINE
8
BLACK
6
CONTINUOUS
10
62.4653
20
-73.7896
11
62.4749
21
-73.7845
0
LINE
8
BLACK
6
CONTINUOUS
10
62.4749
20
-73.7845
11
62.7257
21
-73.4493
0
LINE
8
BLACK
6
CONTINUOUS
10
62.7257
20
-73.4493
11
62.9519
21
-73.0853
0
LINE
8
BLACK
6
CONTINUOUS
10
62.9519
20
-73.0853
11
63.1458
21
-72.703
0
LINE
8
BLACK
6
CONTINUOUS
10
63.1458
20
-72.703
11
63.3059
21
-72.3054
0
LINE
8
BLACK
6
CONTINUOUS
10
63.3059
20
-72.3054
11
63.4311
21
-71.8955
0
LINE
8
BLACK
6
CONTINUOUS
10
63.4311
20
-71.8955
11
63.5203
21
-71.4762
0
LINE
8
BLACK
6
CONTINUOUS
10
63.5203
20
-71.4762
11
63.573
21
-71.0509
0
LINE
8
BLACK
6
CONTINUOUS
10
63.573
20
-71.0509
11
63.5887
21
-70.6225
0
LINE
8
BLACK
6
CONTINUOUS
10
63.5887
20
-70.6225
11
63.5674
21
-70.1944
0
LINE
8
BLACK
6
CONTINUOUS
10
63.5674
20
-70.1944
11
63.5091
21
-69.7698
0
LINE
8
BLACK
6
CONTINUOUS
10
63.5091
20
-69.7698
11
63.4144
21
-69.3518
0
LINE
8
BLACK
6
CONTINUOUS
10
63.4144
20
-69.3518
11
63.2838
21
-68.9435
0
LINE
8
BLACK
6
CONTINUOUS
10
63.2838
20
-68.9435
11
63.1185
21
-68.5481
0
LINE
8
BLACK
6
CONTINUOUS
10
63.1185
20
-68.5481
11
62.9196
21
-68.1684
0
LINE
8
BLACK
6
CONTINUOUS
10
62.9196
20
-68.1684
11
62.6887
21
-67.8073
0
LINE
8
BLACK
6
CONTINUOUS
10
62.6887
20
-67.8073
11
62.4274
21
-67.4676
0
LINE
8
BLACK
6
CONTINUOUS
10
62.4274
20
-67.4676
11
62.1445
21
-67.159
0
LINE
8
BLACK
6
CONTINUOUS
10
62.1445
20
-67.159
11
62.1344
21
-67.1549
0
LINE
8
BLACK
6
CONTINUOUS
10
62.1344
20
-67.1549
11
61.8897
21
-66.8838
0
LINE
8
BLACK
6
CONTINUOUS
10
61.8897
20
-66.8838
11
61.6739
21
-66.5891
0
LINE
8
BLACK
6
CONTINUOUS
10
61.6739
20
-66.5891
11
61.4892
21
-66.274
0
LINE
8
BLACK
6
CONTINUOUS
10
61.4892
20
-66.274
11
61.3376
21
-65.9416
0
LINE
8
BLACK
6
CONTINUOUS
10
61.3376
20
-65.9416
11
61.2208
21
-65.5956
0
LINE
8
BLACK
6
CONTINUOUS
10
61.2208
20
-65.5956
11
61.1398
21
-65.2394
0
LINE
8
BLACK
6
CONTINUOUS
10
61.1398
20
-65.2394
11
61.0956
21
-64.8769
0
LINE
8
BLACK
6
CONTINUOUS
10
61.0956
20
-64.8769
11
61.0885
21
-64.5117
0
LINE
8
BLACK
6
CONTINUOUS
10
61.0885
20
-64.5117
11
61.1188
21
-64.1477
0
LINE
8
BLACK
6
CONTINUOUS
10
61.1188
20
-64.1477
11
61.186
21
-63.7887
0
LINE
8
BLACK
6
CONTINUOUS
10
61.186
20
-63.7887
11
61.2894
21
-63.4384
0
LINE
8
BLACK
6
CONTINUOUS
10
61.2894
20
-63.4384
11
61.4281
21
-63.1005
0
LINE
8
BLACK
6
CONTINUOUS
10
61.4281
20
-63.1005
11
61.6004
21
-62.7784
0
LINE
8
BLACK
6
CONTINUOUS
10
61.6004
20
-62.7784
11
61.8048
21
-62.4757
0
LINE
8
BLACK
6
CONTINUOUS
10
61.8048
20
-62.4757
11
62.0389
21
-62.1953
0
LINE
8
BLACK
6
CONTINUOUS
10
62.0389
20
-62.1953
11
62.3004
21
-61.9403
0
LINE
8
BLACK
6
CONTINUOUS
10
62.3004
20
-61.9403
11
62.5865
21
-61.7133
0
LINE
8
BLACK
6
CONTINUOUS
10
62.5865
20
-61.7133
11
62.8943
21
-61.5167
0
LINE
8
BLACK
6
CONTINUOUS
10
62.8943
20
-61.5167
11
63.2205
21
-61.3524
0
LINE
8
BLACK
6
CONTINUOUS
10
63.2205
20
-61.3524
11
63.5618
21
-61.2223
0
LINE
8
BLACK
6
CONTINUOUS
10
63.5618
20
-61.2223
11
63.9146
21
-61.1277
0
LINE
8
BLACK
6
CONTINUOUS
10
63.9146
20
-61.1277
11
64.2752
21
-61.0695
0
LINE
8
BLACK
6
CONTINUOUS
10
64.2752
20
-61.0695
11
64.6398
21
-61.0484
0
LINE
8
BLACK
6
CONTINUOUS
10
64.6398
20
-61.0484
11
65.0047
21
-61.0646
0
LINE
8
BLACK
6
CONTINUOUS
10
65.0047
20
-61.0646
11
65.3661
21
-61.1179
0
LINE
8
BLACK
6
CONTINUOUS
10
65.3661
20
-61.1179
11
65.7158
21
-61.2067
0
LINE
8
BLACK
6
CONTINUOUS
10
65.7158
20
-61.2067
11
65.7935
21
-61.1991
0
LINE
8
BLACK
6
CONTINUOUS
10
65.7935
20
-61.1991
11
65.8784
21
-61.1733
0
LINE
8
BLACK
6
CONTINUOUS
10
65.8784
20
-61.1733
11
65.9565
21
-61.1315
0
LINE
8
BLACK
6
CONTINUOUS
10
65.9565
20
-61.1315
11
66.0218
21
-61.078
0
LINE
8
BLACK
6
CONTINUOUS
10
66.0218
20
-61.078
11
66.0235
21
-61.0738
0
LINE
8
BLACK
6
CONTINUOUS
10
66.0235
20
-61.0738
11
66.0254
21
-61.073
0
LINE
8
BLACK
6
CONTINUOUS
10
66.0254
20
-61.073
11
66.0264
21
-61.0711
0
LINE
8
BLACK
6
CONTINUOUS
10
66.0264
20
-61.0711
11
67.1068
21
-60.1716
0
LINE
8
BLACK
6
CONTINUOUS
10
67.1068
20
-60.1716
11
68.2113
21
-59.3018
0
LINE
8
BLACK
6
CONTINUOUS
10
68.2113
20
-59.3018
11
69.339
21
-58.4624
0
LINE
8
BLACK
6
CONTINUOUS
10
69.339
20
-58.4624
11
70.4892
21
-57.654
0
LINE
8
BLACK
6
CONTINUOUS
10
70.4892
20
-57.654
11
71.6609
21
-56.8771
0
LINE
8
BLACK
6
CONTINUOUS
10
71.6609
20
-56.8771
11
72.8533
21
-56.1324
0
LINE
8
BLACK
6
CONTINUOUS
10
72.8533
20
-56.1324
11
74.0656
21
-55.4205
0
LINE
8
BLACK
6
CONTINUOUS
10
74.0656
20
-55.4205
11
75.2968
21
-54.7417
0
LINE
8
BLACK
6
CONTINUOUS
10
75.2968
20
-54.7417
11
76.5459
21
-54.0967
0
LINE
8
BLACK
6
CONTINUOUS
10
76.5459
20
-54.0967
11
77.8122
21
-53.486
0
LINE
8
BLACK
6
CONTINUOUS
10
77.8122
20
-53.486
11
79.0946
21
-52.9099
0
LINE
8
BLACK
6
CONTINUOUS
10
79.0946
20
-52.9099
11
80.3922
21
-52.3689
0
LINE
8
BLACK
6
CONTINUOUS
10
80.3922
20
-52.3689
11
81.704
21
-51.8634
0
LINE
8
BLACK
6
CONTINUOUS
10
81.704
20
-51.8634
11
83.0291
21
-51.3937
0
LINE
8
BLACK
6
CONTINUOUS
10
83.0291
20
-51.3937
11
84.3665
21
-50.9603
0
LINE
8
BLACK
6
CONTINUOUS
10
84.3665
20
-50.9603
11
85.7152
21
-50.5635
0
LINE
8
BLACK
6
CONTINUOUS
10
85.7152
20
-50.5635
11
87.0742
21
-50.2034
0
LINE
8
BLACK
6
CONTINUOUS
10
87.0742
20
-50.2034
11
88.4424
21
-49.8805
0
LINE
8
BLACK
6
CONTINUOUS
10
88.4424
20
-49.8805
11
89.819
21
-49.5949
0
LINE
8
BLACK
6
CONTINUOUS
10
89.819
20
-49.5949
11
91.2028
21
-49.3469
0
LINE
8
BLACK
6
CONTINUOUS
10
91.2028
20
-49.3469
11
92.5928
21
-49.1366
0
LINE
8
BLACK
6
CONTINUOUS
10
92.5928
20
-49.1366
11
93.9881
21
-48.9641
0
LINE
8
BLACK
6
CONTINUOUS
10
93.9881
20
-48.9641
11
95.3875
21
-48.8297
0
LINE
8
BLACK
6
CONTINUOUS
10
95.3875
20
-48.8297
11
96.7901
21
-48.7335
0
LINE
8
BLACK
6
CONTINUOUS
10
96.7901
20
-48.7335
11
98.1947
21
-48.6754
0
LINE
8
BLACK
6
CONTINUOUS
10
98.1947
20
-48.6754
11
99.6004
21
-48.6555
0
LINE
8
BLACK
6
CONTINUOUS
10
99.6004
20
-48.6555
11
101.006
21
-48.6739
0
LINE
8
BLACK
6
CONTINUOUS
10
98.1974
20
-48.7706
11
96.7953
21
-48.8286
0
LINE
8
BLACK
6
CONTINUOUS
10
96.7953
20
-48.8286
11
95.3953
21
-48.9247
0
LINE
8
BLACK
6
CONTINUOUS
10
95.3953
20
-48.9247
11
93.9985
21
-49.0588
0
LINE
8
BLACK
6
CONTINUOUS
10
93.9985
20
-49.0588
11
92.6058
21
-49.2309
0
LINE
8
BLACK
6
CONTINUOUS
10
92.6058
20
-49.2309
11
91.2183
21
-49.4408
0
LINE
8
BLACK
6
CONTINUOUS
10
91.2183
20
-49.4408
11
89.8371
21
-49.6884
0
LINE
8
BLACK
6
CONTINUOUS
10
89.8371
20
-49.6884
11
88.4631
21
-49.9735
0
LINE
8
BLACK
6
CONTINUOUS
10
88.4631
20
-49.9735
11
87.0973
21
-50.2958
0
LINE
8
BLACK
6
CONTINUOUS
10
87.0973
20
-50.2958
11
85.7408
21
-50.6552
0
LINE
8
BLACK
6
CONTINUOUS
10
85.7408
20
-50.6552
11
84.3946
21
-51.0513
0
LINE
8
BLACK
6
CONTINUOUS
10
84.3946
20
-51.0513
11
83.0597
21
-51.4839
0
LINE
8
BLACK
6
CONTINUOUS
10
83.0597
20
-51.4839
11
81.7371
21
-51.9527
0
LINE
8
BLACK
6
CONTINUOUS
10
81.7371
20
-51.9527
11
80.4276
21
-52.4572
0
LINE
8
BLACK
6
CONTINUOUS
10
80.4276
20
-52.4572
11
79.1324
21
-52.9973
0
LINE
8
BLACK
6
CONTINUOUS
10
79.1324
20
-52.9973
11
77.8524
21
-53.5723
0
LINE
8
BLACK
6
CONTINUOUS
10
77.8524
20
-53.5723
11
76.5885
21
-54.1819
0
LINE
8
BLACK
6
CONTINUOUS
10
76.5885
20
-54.1819
11
75.3416
21
-54.8257
0
LINE
8
BLACK
6
CONTINUOUS
10
75.3416
20
-54.8257
11
74.1127
21
-55.5032
0
LINE
8
BLACK
6
CONTINUOUS
10
74.1127
20
-55.5032
11
72.9027
21
-56.2139
0
LINE
8
BLACK
6
CONTINUOUS
10
72.9027
20
-56.2139
11
71.7125
21
-56.9572
0
LINE
8
BLACK
6
CONTINUOUS
10
71.7125
20
-56.9572
11
70.5429
21
-57.7326
0
LINE
8
BLACK
6
CONTINUOUS
10
70.5429
20
-57.7326
11
69.3948
21
-58.5396
0
LINE
8
BLACK
6
CONTINUOUS
10
69.3948
20
-58.5396
11
68.2692
21
-59.3774
0
LINE
8
BLACK
6
CONTINUOUS
10
68.2692
20
-59.3774
11
67.1667
21
-60.2456
0
LINE
8
BLACK
6
CONTINUOUS
10
67.1667
20
-60.2456
11
66.098
21
-61.1354
0
LINE
8
BLACK
6
CONTINUOUS
10
66.098
20
-61.1354
11
66.0942
21
-61.1445
0
LINE
8
BLACK
6
CONTINUOUS
10
66.0942
20
-61.1445
11
66.0916
21
-61.1466
0
LINE
8
BLACK
6
CONTINUOUS
10
66.0916
20
-61.1466
11
66.0914
21
-61.1471
0
LINE
8
BLACK
6
CONTINUOUS
10
66.0914
20
-61.1471
11
66.0908
21
-61.1473
0
LINE
8
BLACK
6
CONTINUOUS
10
66.0908
20
-61.1473
11
66.0109
21
-61.2129
0
LINE
8
BLACK
6
CONTINUOUS
10
66.0109
20
-61.2129
11
65.9158
21
-61.2637
0
LINE
8
BLACK
6
CONTINUOUS
10
65.9158
20
-61.2637
11
65.8126
21
-61.295
0
LINE
8
BLACK
6
CONTINUOUS
10
65.8126
20
-61.295
11
65.7053
21
-61.3056
0
LINE
8
BLACK
6
CONTINUOUS
10
65.7053
20
-61.3056
11
65.7053
21
-61.3056
0
LINE
8
BLACK
6
CONTINUOUS
10
65.7053
20
-61.3056
11
65.6982
21
-61.3026
0
LINE
8
BLACK
6
CONTINUOUS
10
65.6982
20
-61.3026
11
65.6906
21
-61.3033
0
LINE
8
BLACK
6
CONTINUOUS
10
65.6906
20
-61.3033
11
65.6826
21
-61.2967
0
LINE
8
BLACK
6
CONTINUOUS
10
65.6826
20
-61.2967
11
65.3473
21
-61.2116
0
LINE
8
BLACK
6
CONTINUOUS
10
65.3473
20
-61.2116
11
64.9956
21
-61.1597
0
LINE
8
BLACK
6
CONTINUOUS
10
64.9956
20
-61.1597
11
64.6405
21
-61.1439
0
LINE
8
BLACK
6
CONTINUOUS
10
64.6405
20
-61.1439
11
64.2856
21
-61.1645
0
LINE
8
BLACK
6
CONTINUOUS
10
64.2856
20
-61.1645
11
63.9346
21
-61.2211
0
LINE
8
BLACK
6
CONTINUOUS
10
63.9346
20
-61.2211
11
63.5913
21
-61.3132
0
LINE
8
BLACK
6
CONTINUOUS
10
63.5913
20
-61.3132
11
63.2591
21
-61.4398
0
LINE
8
BLACK
6
CONTINUOUS
10
63.2591
20
-61.4398
11
62.9416
21
-61.5997
0
LINE
8
BLACK
6
CONTINUOUS
10
62.9416
20
-61.5997
11
62.642
21
-61.7911
0
LINE
8
BLACK
6
CONTINUOUS
10
62.642
20
-61.7911
11
62.3635
21
-62.012
0
LINE
8
BLACK
6
CONTINUOUS
10
62.3635
20
-62.012
11
62.109
21
-62.2602
0
LINE
8
BLACK
6
CONTINUOUS
10
62.109
20
-62.2602
11
61.8811
21
-62.5331
0
LINE
8
BLACK
6
CONTINUOUS
10
61.8811
20
-62.5331
11
61.6822
21
-62.8278
0
LINE
8
BLACK
6
CONTINUOUS
10
61.6822
20
-62.8278
11
61.5145
21
-63.1412
0
LINE
8
BLACK
6
CONTINUOUS
10
61.5145
20
-63.1412
11
61.3795
21
-63.4701
0
LINE
8
BLACK
6
CONTINUOUS
10
61.3795
20
-63.4701
11
61.2788
21
-63.811
0
LINE
8
BLACK
6
CONTINUOUS
10
61.2788
20
-63.811
11
61.2134
21
-64.1604
0
LINE
8
BLACK
6
CONTINUOUS
10
61.2134
20
-64.1604
11
61.184
21
-64.5147
0
LINE
8
BLACK
6
CONTINUOUS
10
61.184
20
-64.5147
11
61.1908
21
-64.8702
0
LINE
8
BLACK
6
CONTINUOUS
10
61.1908
20
-64.8702
11
61.2339
21
-65.223
0
LINE
8
BLACK
6
CONTINUOUS
10
61.2339
20
-65.223
11
61.3127
21
-65.5697
0
LINE
8
BLACK
6
CONTINUOUS
10
61.3127
20
-65.5697
11
61.4265
21
-65.9065
0
LINE
8
BLACK
6
CONTINUOUS
10
61.4265
20
-65.9065
11
61.574
21
-66.2299
0
LINE
8
BLACK
6
CONTINUOUS
10
61.574
20
-66.2299
11
61.7537
21
-66.5367
0
LINE
8
BLACK
6
CONTINUOUS
10
61.7537
20
-66.5367
11
61.9638
21
-66.8235
0
LINE
8
BLACK
6
CONTINUOUS
10
61.9638
20
-66.8235
11
62.1955
21
-67.0802
0
LINE
8
BLACK
6
CONTINUOUS
10
62.1955
20
-67.0802
11
62.2051
21
-67.0842
0
LINE
8
BLACK
6
CONTINUOUS
10
62.2051
20
-67.0842
11
62.4847
21
-67.3876
0
LINE
8
BLACK
6
CONTINUOUS
10
62.4847
20
-67.3876
11
62.7386
21
-67.7129
0
LINE
8
BLACK
6
CONTINUOUS
10
62.7386
20
-67.7129
11
62.9651
21
-68.0578
0
LINE
8
BLACK
6
CONTINUOUS
10
62.9651
20
-68.0578
11
63.1627
21
-68.42
0
LINE
8
BLACK
6
CONTINUOUS
10
63.1627
20
-68.42
11
63.3301
21
-68.7972
0
LINE
8
BLACK
6
CONTINUOUS
10
63.3301
20
-68.7972
11
63.4661
21
-69.1867
0
LINE
8
BLACK
6
CONTINUOUS
10
63.4661
20
-69.1867
11
63.5698
21
-69.5861
0
LINE
8
BLACK
6
CONTINUOUS
10
63.5698
20
-69.5861
11
63.6406
21
-69.9926
0
LINE
8
BLACK
6
CONTINUOUS
10
63.6406
20
-69.9926
11
63.678
21
-70.4035
0
LINE
8
BLACK
6
CONTINUOUS
10
63.678
20
-70.4035
11
63.6817
21
-70.8161
0
LINE
8
BLACK
6
CONTINUOUS
10
63.6817
20
-70.8161
11
63.6517
21
-71.2276
0
LINE
8
BLACK
6
CONTINUOUS
10
63.6517
20
-71.2276
11
63.5882
21
-71.6353
0
LINE
8
BLACK
6
CONTINUOUS
10
63.5882
20
-71.6353
11
63.4916
21
-72.0365
0
LINE
8
BLACK
6
CONTINUOUS
10
63.4916
20
-72.0365
11
63.3626
21
-72.4284
0
LINE
8
BLACK
6
CONTINUOUS
10
63.3626
20
-72.4284
11
63.2021
21
-72.8085
0
LINE
8
BLACK
6
CONTINUOUS
10
63.2021
20
-72.8085
11
63.011
21
-73.1743
0
LINE
8
BLACK
6
CONTINUOUS
10
63.011
20
-73.1743
11
62.7908
21
-73.5232
0
LINE
8
BLACK
6
CONTINUOUS
10
62.7908
20
-73.5232
11
62.545
21
-73.8499
0
LINE
8
BLACK
6
CONTINUOUS
10
62.545
20
-73.8499
11
62.545
21
-73.8499
0
LINE
8
BLACK
6
CONTINUOUS
10
62.545
20
-73.8499
11
62.545
21
-73.8499
0
LINE
8
BLACK
6
CONTINUOUS
10
62.545
20
-73.8499
11
62.5427
21
-73.8529
0
LINE
8
BLACK
6
CONTINUOUS
10
62.5427
20
-73.8529
11
62.534
21
-73.8576
0
LINE
8
BLACK
6
CONTINUOUS
10
62.534
20
-73.8576
11
61.7979
21
-74.9452
0
LINE
8
BLACK
6
CONTINUOUS
10
61.7979
20
-74.9452
11
61.0869
21
-76.0643
0
LINE
8
BLACK
6
CONTINUOUS
10
61.0869
20
-76.0643
11
60.4087
21
-77.2037
0
LINE
8
BLACK
6
CONTINUOUS
10
60.4087
20
-77.2037
11
59.7638
21
-78.3622
0
LINE
8
BLACK
6
CONTINUOUS
10
59.7638
20
-78.3622
11
59.1528
21
-79.539
0
LINE
8
BLACK
6
CONTINUOUS
10
59.1528
20
-79.539
11
58.5763
21
-80.733
0
LINE
8
BLACK
6
CONTINUOUS
10
58.5763
20
-80.733
11
58.0346
21
-81.9432
0
LINE
8
BLACK
6
CONTINUOUS
10
58.0346
20
-81.9432
11
57.5283
21
-83.1686
0
LINE
8
BLACK
6
CONTINUOUS
10
57.5283
20
-83.1686
11
57.0577
21
-84.4082
0
LINE
8
BLACK
6
CONTINUOUS
10
57.0577
20
-84.4082
11
56.6233
21
-85.6609
0
LINE
8
BLACK
6
CONTINUOUS
10
56.6233
20
-85.6609
11
56.2255
21
-86.9258
0
LINE
8
BLACK
6
CONTINUOUS
10
56.2255
20
-86.9258
11
55.8645
21
-88.2016
0
LINE
8
BLACK
6
CONTINUOUS
10
55.8645
20
-88.2016
11
55.5407
21
-89.4874
0
LINE
8
BLACK
6
CONTINUOUS
10
55.5407
20
-89.4874
11
55.2544
21
-90.782
0
LINE
8
BLACK
6
CONTINUOUS
10
55.2544
20
-90.782
11
55.0057
21
-92.0844
0
LINE
8
BLACK
6
CONTINUOUS
10
55.0057
20
-92.0844
11
54.7949
21
-93.3934
0
LINE
8
BLACK
6
CONTINUOUS
10
54.7949
20
-93.3934
11
54.6223
21
-94.7081
0
LINE
8
BLACK
6
CONTINUOUS
10
54.6223
20
-94.7081
11
54.4878
21
-96.0271
0
LINE
8
BLACK
6
CONTINUOUS
10
54.4878
20
-96.0271
11
54.3917
21
-97.3496
0
LINE
8
BLACK
6
CONTINUOUS
10
54.3917
20
-97.3496
11
54.334
21
-98.6742
0
LINE
8
BLACK
6
CONTINUOUS
10
54.334
20
-98.6742
11
54.3147
21
-100
0
LINE
8
BLACK
6
CONTINUOUS
10
54.3147
20
-100
11
54.334
21
-101.326
0
LINE
8
BLACK
6
CONTINUOUS
10
54.334
20
-101.326
11
54.3917
21
-102.65
0
LINE
8
BLACK
6
CONTINUOUS
10
54.3917
20
-102.65
11
54.4878
21
-103.973
0
LINE
8
BLACK
6
CONTINUOUS
10
54.4878
20
-103.973
11
54.6223
21
-105.292
0
LINE
8
BLACK
6
CONTINUOUS
10
54.6223
20
-105.292
11
54.7949
21
-106.607
0
LINE
8
BLACK
6
CONTINUOUS
10
54.7949
20
-106.607
11
55.0057
21
-107.916
0
LINE
8
BLACK
6
CONTINUOUS
10
55.0057
20
-107.916
11
55.2544
21
-109.218
0
LINE
8
BLACK
6
CONTINUOUS
10
55.2544
20
-109.218
11
55.5407
21
-110.513
0
LINE
8
BLACK
6
CONTINUOUS
10
55.5407
20
-110.513
11
55.8645
21
-111.798
0
LINE
8
BLACK
6
CONTINUOUS
10
55.8645
20
-111.798
11
56.2255
21
-113.074
0
LINE
8
BLACK
6
CONTINUOUS
10
56.2255
20
-113.074
11
56.6233
21
-114.339
0
LINE
8
BLACK
6
CONTINUOUS
10
56.6233
20
-114.339
11
57.0577
21
-115.592
0
LINE
8
BLACK
6
CONTINUOUS
10
57.0577
20
-115.592
11
57.5283
21
-116.831
0
LINE
8
BLACK
6
CONTINUOUS
10
57.5283
20
-116.831
11
58.0346
21
-118.057
0
LINE
8
BLACK
6
CONTINUOUS
10
58.0346
20
-118.057
11
58.5763
21
-119.267
0
LINE
8
BLACK
6
CONTINUOUS
10
58.5763
20
-119.267
11
59.1528
21
-120.461
0
LINE
8
BLACK
6
CONTINUOUS
10
59.1528
20
-120.461
11
59.7638
21
-121.638
0
LINE
8
BLACK
6
CONTINUOUS
10
59.7638
20
-121.638
11
60.4087
21
-122.796
0
LINE
8
BLACK
6
CONTINUOUS
10
60.4087
20
-122.796
11
61.0869
21
-123.936
0
LINE
8
BLACK
6
CONTINUOUS
10
61.0869
20
-123.936
11
61.7979
21
-125.055
0
LINE
8
BLACK
6
CONTINUOUS
10
61.7979
20
-125.055
11
62.534
21
-126.142
0
LINE
8
BLACK
6
CONTINUOUS
10
62.534
20
-126.142
11
62.5427
21
-126.147
0
LINE
8
BLACK
6
CONTINUOUS
10
62.5427
20
-126.147
11
62.545
21
-126.15
0
LINE
8
BLACK
6
CONTINUOUS
10
62.545
20
-126.15
11
62.545
21
-126.15
0
LINE
8
BLACK
6
CONTINUOUS
10
62.545
20
-126.15
11
62.545
21
-126.15
0
LINE
8
BLACK
6
CONTINUOUS
10
62.545
20
-126.15
11
62.7908
21
-126.477
0
LINE
8
BLACK
6
CONTINUOUS
10
62.7908
20
-126.477
11
63.011
21
-126.826
0
LINE
8
BLACK
6
CONTINUOUS
10
63.011
20
-126.826
11
63.2021
21
-127.191
0
LINE
8
BLACK
6
CONTINUOUS
10
63.2021
20
-127.191
11
63.3626
21
-127.572
0
LINE
8
BLACK
6
CONTINUOUS
10
63.3626
20
-127.572
11
63.4916
21
-127.963
0
LINE
8
BLACK
6
CONTINUOUS
10
63.4916
20
-127.963
11
63.5882
21
-128.365
0
LINE
8
BLACK
6
CONTINUOUS
10
63.5882
20
-128.365
11
63.6517
21
-128.772
0
LINE
8
BLACK
6
CONTINUOUS
10
63.6517
20
-128.772
11
63.6817
21
-129.184
0
LINE
8
BLACK
6
CONTINUOUS
10
63.6817
20
-129.184
11
63.678
21
-129.596
0
LINE
8
BLACK
6
CONTINUOUS
10
63.678
20
-129.596
11
63.6406
21
-130.007
0
LINE
8
BLACK
6
CONTINUOUS
10
63.6406
20
-130.007
11
63.5698
21
-130.414
0
LINE
8
BLACK
6
CONTINUOUS
10
63.5698
20
-130.414
11
63.4661
21
-130.813
0
LINE
8
BLACK
6
CONTINUOUS
10
63.4661
20
-130.813
11
63.3301
21
-131.203
0
LINE
8
BLACK
6
CONTINUOUS
10
63.3301
20
-131.203
11
63.1627
21
-131.58
0
LINE
8
BLACK
6
CONTINUOUS
10
63.1627
20
-131.58
11
62.9651
21
-131.942
0
LINE
8
BLACK
6
CONTINUOUS
10
62.9651
20
-131.942
11
62.7386
21
-132.287
0
LINE
8
BLACK
6
CONTINUOUS
10
62.7386
20
-132.287
11
62.4847
21
-132.612
0
LINE
8
BLACK
6
CONTINUOUS
10
62.4847
20
-132.612
11
62.2051
21
-132.916
0
LINE
8
BLACK
6
CONTINUOUS
10
62.2051
20
-132.916
11
62.195
21
-132.92
0
LINE
8
BLACK
6
CONTINUOUS
10
62.195
20
-132.92
11
61.9598
21
-133.181
0
LINE
8
BLACK
6
CONTINUOUS
10
61.9598
20
-133.181
11
61.7473
21
-133.474
0
LINE
8
BLACK
6
CONTINUOUS
10
61.7473
20
-133.474
11
61.5665
21
-133.787
0
LINE
8
BLACK
6
CONTINUOUS
10
61.5665
20
-133.787
11
61.4194
21
-134.117
0
LINE
8
BLACK
6
CONTINUOUS
10
61.4194
20
-134.117
11
61.3076
21
-134.461
0
LINE
8
BLACK
6
CONTINUOUS
10
61.3076
20
-134.461
11
61.2325
21
-134.815
0
LINE
8
BLACK
6
CONTINUOUS
10
61.2325
20
-134.815
11
61.1947
21
-135.175
0
LINE
8
BLACK
6
CONTINUOUS
10
61.1947
20
-135.175
11
61.1947
21
-135.536
0
LINE
8
BLACK
6
CONTINUOUS
10
61.1947
20
-135.536
11
61.2325
21
-135.896
0
LINE
8
BLACK
6
CONTINUOUS
10
61.2325
20
-135.896
11
61.3076
21
-136.249
0
LINE
8
BLACK
6
CONTINUOUS
10
61.3076
20
-136.249
11
61.4194
21
-136.593
0
LINE
8
BLACK
6
CONTINUOUS
10
61.4194
20
-136.593
11
61.5665
21
-136.924
0
LINE
8
BLACK
6
CONTINUOUS
10
61.5665
20
-136.924
11
61.7473
21
-137.237
0
LINE
8
BLACK
6
CONTINUOUS
10
61.7473
20
-137.237
11
61.9598
21
-137.529
0
LINE
8
BLACK
6
CONTINUOUS
10
61.9598
20
-137.529
11
62.2018
21
-137.798
0
LINE
8
BLACK
6
CONTINUOUS
10
62.2018
20
-137.798
11
62.4705
21
-138.04
0
LINE
8
BLACK
6
CONTINUOUS
10
62.4705
20
-138.04
11
62.7631
21
-138.253
0
LINE
8
BLACK
6
CONTINUOUS
10
62.7631
20
-138.253
11
63.0762
21
-138.434
0
LINE
8
BLACK
6
CONTINUOUS
10
63.0762
20
-138.434
11
63.4066
21
-138.581
0
LINE
8
BLACK
6
CONTINUOUS
10
63.4066
20
-138.581
11
63.7505
21
-138.692
0
LINE
8
BLACK
6
CONTINUOUS
10
63.7505
20
-138.692
11
64.1042
21
-138.768
0
LINE
8
BLACK
6
CONTINUOUS
10
64.1042
20
-138.768
11
64.4639
21
-138.805
0
LINE
8
BLACK
6
CONTINUOUS
10
64.4639
20
-138.805
11
64.8255
21
-138.805
0
LINE
8
BLACK
6
CONTINUOUS
10
64.8255
20
-138.805
11
65.1851
21
-138.768
0
LINE
8
BLACK
6
CONTINUOUS
10
65.1851
20
-138.768
11
65.5388
21
-138.692
0
LINE
8
BLACK
6
CONTINUOUS
10
65.5388
20
-138.692
11
65.8827
21
-138.581
0
LINE
8
BLACK
6
CONTINUOUS
10
65.8827
20
-138.581
11
66.2131
21
-138.434
0
LINE
8
BLACK
6
CONTINUOUS
10
66.2131
20
-138.434
11
66.5262
21
-138.253
0
LINE
8
BLACK
6
CONTINUOUS
10
66.5262
20
-138.253
11
66.8188
21
-138.04
0
LINE
8
BLACK
6
CONTINUOUS
10
66.8188
20
-138.04
11
67.08
21
-137.805
0
LINE
8
BLACK
6
CONTINUOUS
10
67.08
20
-137.805
11
67.0842
21
-137.795
0
LINE
8
BLACK
6
CONTINUOUS
10
67.0842
20
-137.795
11
67.3876
21
-137.515
0
LINE
8
BLACK
6
CONTINUOUS
10
67.3876
20
-137.515
11
67.7129
21
-137.261
0
LINE
8
BLACK
6
CONTINUOUS
10
67.7129
20
-137.261
11
68.0578
21
-137.035
0
LINE
8
BLACK
6
CONTINUOUS
10
68.0578
20
-137.035
11
68.42
21
-136.837
0
LINE
8
BLACK
6
CONTINUOUS
10
68.42
20
-136.837
11
68.7972
21
-136.67
0
LINE
8
BLACK
6
CONTINUOUS
10
68.7972
20
-136.67
11
69.1867
21
-136.534
0
LINE
8
BLACK
6
CONTINUOUS
10
69.1867
20
-136.534
11
69.5861
21
-136.43
0
LINE
8
BLACK
6
CONTINUOUS
10
69.5861
20
-136.43
11
69.9926
21
-136.359
0
LINE
8
BLACK
6
CONTINUOUS
10
69.9926
20
-136.359
11
70.4035
21
-136.322
0
LINE
8
BLACK
6
CONTINUOUS
10
70.4035
20
-136.322
11
70.8161
21
-136.318
0
LINE
8
BLACK
6
CONTINUOUS
10
70.8161
20
-136.318
11
71.2276
21
-136.348
0
LINE
8
BLACK
6
CONTINUOUS
10
71.2276
20
-136.348
11
71.6353
21
-136.412
0
LINE
8
BLACK
6
CONTINUOUS
10
71.6353
20
-136.412
11
72.0365
21
-136.508
0
LINE
8
BLACK
6
CONTINUOUS
10
72.0365
20
-136.508
11
72.4284
21
-136.637
0
LINE
8
BLACK
6
CONTINUOUS
10
72.4284
20
-136.637
11
72.8085
21
-136.798
0
LINE
8
BLACK
6
CONTINUOUS
10
72.8085
20
-136.798
11
73.1743
21
-136.989
0
LINE
8
BLACK
6
CONTINUOUS
10
73.1743
20
-136.989
11
73.5232
21
-137.209
0
LINE
8
BLACK
6
CONTINUOUS
10
73.5232
20
-137.209
11
73.8499
21
-137.455
0
LINE
8
BLACK
6
CONTINUOUS
10
73.8499
20
-137.455
11
73.8499
21
-137.455
0
LINE
8
BLACK
6
CONTINUOUS
10
73.8499
20
-137.455
11
73.8499
21
-137.455
0
LINE
8
BLACK
6
CONTINUOUS
10
73.8499
20
-137.455
11
73.8529
21
-137.457
0
LINE
8
BLACK
6
CONTINUOUS
10
73.8529
20
-137.457
11
73.8576
21
-137.466
0
LINE
8
BLACK
6
CONTINUOUS
10
73.8576
20
-137.466
11
74.9452
21
-138.202
0
LINE
8
BLACK
6
CONTINUOUS
10
74.9452
20
-138.202
11
76.0643
21
-138.913
0
LINE
8
BLACK
6
CONTINUOUS
10
76.0643
20
-138.913
11
77.2037
21
-139.591
0
LINE
8
BLACK
6
CONTINUOUS
10
77.2037
20
-139.591
11
78.3622
21
-140.236
0
LINE
8
BLACK
6
CONTINUOUS
10
78.3622
20
-140.236
11
79.539
21
-140.847
0
LINE
8
BLACK
6
CONTINUOUS
10
79.539
20
-140.847
11
80.733
21
-141.424
0
LINE
8
BLACK
6
CONTINUOUS
10
80.733
20
-141.424
11
81.9432
21
-141.965
0
LINE
8
BLACK
6
CONTINUOUS
10
81.9432
20
-141.965
11
83.1686
21
-142.472
0
LINE
8
BLACK
6
CONTINUOUS
10
83.1686
20
-142.472
11
84.4082
21
-142.942
0
LINE
8
BLACK
6
CONTINUOUS
10
84.4082
20
-142.942
11
85.6609
21
-143.377
0
LINE
8
BLACK
6
CONTINUOUS
10
85.6609
20
-143.377
11
86.9258
21
-143.775
0
LINE
8
BLACK
6
CONTINUOUS
10
86.9258
20
-143.775
11
88.2016
21
-144.135
0
LINE
8
BLACK
6
CONTINUOUS
10
88.2016
20
-144.135
11
89.4874
21
-144.459
0
LINE
8
BLACK
6
CONTINUOUS
10
89.4874
20
-144.459
11
90.782
21
-144.746
0
LINE
8
BLACK
6
CONTINUOUS
10
90.782
20
-144.746
11
92.0844
21
-144.994
0
LINE
8
BLACK
6
CONTINUOUS
10
92.0844
20
-144.994
11
93.3934
21
-145.205
0
LINE
8
BLACK
6
CONTINUOUS
10
93.3934
20
-145.205
11
94.7081
21
-145.378
0
LINE
8
BLACK
6
CONTINUOUS
10
94.7081
20
-145.378
11
96.0271
21
-145.512
0
LINE
8
BLACK
6
CONTINUOUS
10
96.0271
20
-145.512
11
97.3496
21
-145.608
0
LINE
8
BLACK
6
CONTINUOUS
10
97.3496
20
-145.608
11
98.6742
21
-145.666
0
LINE
8
BLACK
6
CONTINUOUS
10
98.6742
20
-145.666
11
100
21
-145.685
0
LINE
8
BLACK
6
CONTINUOUS
10
100
20
-145.685
11
101.326
21
-145.666
0
LINE
8
BLACK
6
CONTINUOUS
10
101.326
20
-145.666
11
102.65
21
-145.608
0
LINE
8
BLACK
6
CONTINUOUS
10
102.65
20
-145.608
11
103.973
21
-145.512
0
LINE
8
BLACK
6
CONTINUOUS
10
103.973
20
-145.512
11
105.292
21
-145.378
0
LINE
8
BLACK
6
CONTINUOUS
10
105.292
20
-145.378
11
106.607
21
-145.205
0
LINE
8
BLACK
6
CONTINUOUS
10
106.607
20
-145.205
11
107.916
21
-144.994
0
LINE
8
BLACK
6
CONTINUOUS
10
107.916
20
-144.994
11
109.218
21
-144.746
0
LINE
8
BLACK
6
CONTINUOUS
10
109.218
20
-144.746
11
110.513
21
-144.459
0
LINE
8
BLACK
6
CONTINUOUS
10
110.513
20
-144.459
11
111.798
21
-144.135
0
LINE
8
BLACK
6
CONTINUOUS
10
111.798
20
-144.135
11
113.074
21
-143.775
0
LINE
8
BLACK
6
CONTINUOUS
10
113.074
20
-143.775
11
114.339
21
-143.377
0
LINE
8
BLACK
6
CONTINUOUS
10
114.339
20
-143.377
11
115.592
21
-142.942
0
LINE
8
BLACK
6
CONTINUOUS
10
115.592
20
-142.942
11
116.831
21
-142.472
0
LINE
8
BLACK
6
CONTINUOUS
10
116.831
20
-142.472
11
118.057
21
-141.965
0
LINE
8
BLACK
6
CONTINUOUS
10
118.057
20
-141.965
11
119.267
21
-141.424
0
LINE
8
BLACK
6
CONTINUOUS
10
119.267
20
-141.424
11
120.461
21
-140.847
0
LINE
8
BLACK
6
CONTINUOUS
10
120.461
20
-140.847
11
121.638
21
-140.236
0
LINE
8
BLACK
6
CONTINUOUS
10
121.638
20
-140.236
11
122.796
21
-139.591
0
LINE
8
BLACK
6
CONTINUOUS
10
122.796
20
-139.591
11
123.936
21
-138.913
0
LINE
8
BLACK
6
CONTINUOUS
10
123.936
20
-138.913
11
125.055
21
-138.202
0
LINE
8
BLACK
6
CONTINUOUS
10
125.055
20
-138.202
11
126.142
21
-137.466
0
LINE
8
BLACK
6
CONTINUOUS
10
126.142
20
-137.466
11
126.147
21
-137.457
0
LINE
8
BLACK
6
CONTINUOUS
10
126.147
20
-137.457
11
126.15
21
-137.455
0
LINE
8
BLACK
6
CONTINUOUS
10
126.15
20
-137.455
11
126.15
21
-137.455
0
LINE
8
BLACK
6
CONTINUOUS
10
126.15
20
-137.455
11
126.15
21
-137.455
0
LINE
8
BLACK
6
CONTINUOUS
10
126.15
20
-137.455
11
126.477
21
-137.209
0
LINE
8
BLACK
6
CONTINUOUS
10
126.477
20
-137.209
11
126.826
21
-136.989
0
LINE
8
BLACK
6
CONTINUOUS
10
126.826
20
-136.989
11
127.191
21
-136.798
0
LINE
8
BLACK
6
CONTINUOUS
10
127.191
20
-136.798
11
127.572
21
-136.637
0
LINE
8
BLACK
6
CONTINUOUS
10
127.572
20
-136.637
11
127.963
21
-136.508
0
LINE
8
BLACK
6
CONTINUOUS
10
127.963
20
-136.508
11
128.365
21
-136.412
0
LINE
8
BLACK
6
CONTINUOUS
10
128.365
20
-136.412
11
128.772
21
-136.348
0
LINE
8
BLACK
6
CONTINUOUS
10
128.772
20
-136.348
11
129.184
21
-136.318
0
LINE
8
BLACK
6
CONTINUOUS
10
129.184
20
-136.318
11
129.596
21
-136.322
0
LINE
8
BLACK
6
CONTINUOUS
10
129.596
20
-136.322
11
130.007
21
-136.359
0
LINE
8
BLACK
6
CONTINUOUS
10
130.007
20
-136.359
11
130.414
21
-136.43
0
LINE
8
BLACK
6
CONTINUOUS
10
130.414
20
-136.43
11
130.813
21
-136.534
0
LINE
8
BLACK
6
CONTINUOUS
10
130.813
20
-136.534
11
131.203
21
-136.67
0
LINE
8
BLACK
6
CONTINUOUS
10
131.203
20
-136.67
11
131.58
21
-136.837
0
LINE
8
BLACK
6
CONTINUOUS
10
131.58
20
-136.837
11
131.942
21
-137.035
0
LINE
8
BLACK
6
CONTINUOUS
10
131.942
20
-137.035
11
132.287
21
-137.261
0
LINE
8
BLACK
6
CONTINUOUS
10
132.287
20
-137.261
11
132.612
21
-137.515
0
LINE
8
BLACK
6
CONTINUOUS
10
132.612
20
-137.515
11
132.916
21
-137.795
0
LINE
8
BLACK
6
CONTINUOUS
10
132.916
20
-137.795
11
132.92
21
-137.805
0
LINE
8
BLACK
6
CONTINUOUS
10
132.92
20
-137.805
11
133.181
21
-138.04
0
LINE
8
BLACK
6
CONTINUOUS
10
133.181
20
-138.04
11
133.474
21
-138.253
0
LINE
8
BLACK
6
CONTINUOUS
10
133.474
20
-138.253
11
133.787
21
-138.434
0
LINE
8
BLACK
6
CONTINUOUS
10
133.787
20
-138.434
11
134.117
21
-138.581
0
LINE
8
BLACK
6
CONTINUOUS
10
134.117
20
-138.581
11
134.461
21
-138.692
0
LINE
8
BLACK
6
CONTINUOUS
10
134.461
20
-138.692
11
134.815
21
-138.768
0
LINE
8
BLACK
6
CONTINUOUS
10
134.815
20
-138.768
11
135.175
21
-138.805
0
LINE
8
BLACK
6
CONTINUOUS
10
135.175
20
-138.805
11
135.536
21
-138.805
0
LINE
8
BLACK
6
CONTINUOUS
10
135.536
20
-138.805
11
135.896
21
-138.768
0
LINE
8
BLACK
6
CONTINUOUS
10
135.896
20
-138.768
11
136.249
21
-138.692
0
LINE
8
BLACK
6
CONTINUOUS
10
136.249
20
-138.692
11
136.593
21
-138.581
0
LINE
8
BLACK
6
CONTINUOUS
10
136.593
20
-138.581
11
136.924
21
-138.434
0
LINE
8
BLACK
6
CONTINUOUS
10
136.924
20
-138.434
11
137.237
21
-138.253
0
LINE
8
BLACK
6
CONTINUOUS
10
137.237
20
-138.253
11
137.529
21
-138.04
0
LINE
8
BLACK
6
CONTINUOUS
10
137.529
20
-138.04
11
137.798
21
-137.798
0
LINE
8
BLACK
6
CONTINUOUS
10
137.798
20
-137.798
11
138.04
21
-137.529
0
LINE
8
BLACK
6
CONTINUOUS
10
138.04
20
-137.529
11
138.253
21
-137.237
0
LINE
8
BLACK
6
CONTINUOUS
10
138.253
20
-137.237
11
138.434
21
-136.924
0
LINE
8
BLACK
6
CONTINUOUS
10
138.434
20
-136.924
11
138.581
21
-136.593
0
LINE
8
BLACK
6
CONTINUOUS
10
138.581
20
-136.593
11
138.692
21
-136.249
0
LINE
8
BLACK
6
CONTINUOUS
10
138.692
20
-136.249
11
138.768
21
-135.896
0
LINE
8
BLACK
6
CONTINUOUS
10
138.768
20
-135.896
11
138.805
21
-135.536
0
LINE
8
BLACK
6
CONTINUOUS
10
138.805
20
-135.536
11
138.805
21
-135.175
0
LINE
8
BLACK
6
CONTINUOUS
10
138.805
20
-135.175
11
138.768
21
-134.815
0
LINE
8
BLACK
6
CONTINUOUS
10
138.768
20
-134.815
11
138.692
21
-134.461
0
LINE
8
BLACK
6
CONTINUOUS
10
138.692
20
-134.461
11
138.581
21
-134.117
0
LINE
8
BLACK
6
CONTINUOUS
10
138.581
20
-134.117
11
138.434
21
-133.787
0
LINE
8
BLACK
6
CONTINUOUS
10
138.434
20
-133.787
11
138.253
21
-133.474
0
LINE
8
BLACK
6
CONTINUOUS
10
138.253
20
-133.474
11
138.04
21
-133.181
0
LINE
8
BLACK
6
CONTINUOUS
10
138.04
20
-133.181
11
137.805
21
-132.92
0
LINE
8
BLACK
6
CONTINUOUS
10
137.805
20
-132.92
11
137.795
21
-132.916
0
LINE
8
BLACK
6
CONTINUOUS
10
137.795
20
-132.916
11
137.515
21
-132.612
0
LINE
8
BLACK
6
CONTINUOUS
10
137.515
20
-132.612
11
137.261
21
-132.287
0
LINE
8
BLACK
6
CONTINUOUS
10
137.261
20
-132.287
11
137.035
21
-131.942
0
LINE
8
BLACK
6
CONTINUOUS
10
137.035
20
-131.942
11
136.837
21
-131.58
0
LINE
8
BLACK
6
CONTINUOUS
10
136.837
20
-131.58
11
136.67
21
-131.203
0
LINE
8
BLACK
6
CONTINUOUS
10
136.67
20
-131.203
11
136.534
21
-130.813
0
LINE
8
BLACK
6
CONTINUOUS
10
136.534
20
-130.813
11
136.43
21
-130.414
0
LINE
8
BLACK
6
CONTINUOUS
10
136.43
20
-130.414
11
136.359
21
-130.007
0
LINE
8
BLACK
6
CONTINUOUS
10
136.359
20
-130.007
11
136.322
21
-129.596
0
LINE
8
BLACK
6
CONTINUOUS
10
136.322
20
-129.596
11
136.318
21
-129.184
0
LINE
8
BLACK
6
CONTINUOUS
10
136.318
20
-129.184
11
136.348
21
-128.772
0
LINE
8
BLACK
6
CONTINUOUS
10
136.348
20
-128.772
11
136.412
21
-128.365
0
LINE
8
BLACK
6
CONTINUOUS
10
136.412
20
-128.365
11
136.508
21
-127.963
0
LINE
8
BLACK
6
CONTINUOUS
10
136.508
20
-127.963
11
136.637
21
-127.572
0
LINE
8
BLACK
6
CONTINUOUS
10
136.637
20
-127.572
11
136.798
21
-127.191
0
LINE
8
BLACK
6
CONTINUOUS
10
136.798
20
-127.191
11
136.989
21
-126.826
0
LINE
8
BLACK
6
CONTINUOUS
10
136.989
20
-126.826
11
137.209
21
-126.477
0
LINE
8
BLACK
6
CONTINUOUS
10
137.209
20
-126.477
11
137.455
21
-126.15
0
LINE
8
BLACK
6
CONTINUOUS
10
137.455
20
-126.15
11
137.455
21
-126.15
0
LINE
8
BLACK
6
CONTINUOUS
10
137.455
20
-126.15
11
137.455
21
-126.15
0
LINE
8
BLACK
6
CONTINUOUS
10
137.455
20
-126.15
11
137.457
21
-126.147
0
LINE
8
BLACK
6
CONTINUOUS
10
137.457
20
-126.147
11
137.466
21
-126.142
0
LINE
8
BLACK
6
CONTINUOUS
10
137.466
20
-126.142
11
138.202
21
-125.055
0
LINE
8
BLACK
6
CONTINUOUS
10
138.202
20
-125.055
11
138.913
21
-123.936
0
LINE
8
BLACK
6
CONTINUOUS
10
138.913
20
-123.936
11
139.591
21
-122.796
0
LINE
8
BLACK
6
CONTINUOUS
10
139.591
20
-122.796
11
140.236
21
-121.638
0
LINE
8
BLACK
6
CONTINUOUS
10
140.236
20
-121.638
11
140.847
21
-120.461
0
LINE
8
BLACK
6
CONTINUOUS
10
140.847
20
-120.461
11
141.424
21
-119.267
0
LINE
8
BLACK
6
CONTINUOUS
10
141.424
20
-119.267
11
141.965
21
-118.057
0
LINE
8
BLACK
6
CONTINUOUS
10
141.965
20
-118.057
11
142.472
21
-116.831
0
LINE
8
BLACK
6
CONTINUOUS
10
142.472
20
-116.831
11
142.942
21
-115.592
0
LINE
8
BLACK
6
CONTINUOUS
10
142.942
20
-115.592
11
143.377
21
-114.339
0
LINE
8
BLACK
6
CONTINUOUS
10
143.377
20
-114.339
11
143.775
21
-113.074
0
LINE
8
BLACK
6
CONTINUOUS
10
143.775
20
-113.074
11
144.135
21
-111.798
0
LINE
8
BLACK
6
CONTINUOUS
10
144.135
20
-111.798
11
144.459
21
-110.513
0
LINE
8
BLACK
6
CONTINUOUS
10
144.459
20
-110.513
11
144.746
21
-109.218
0
LINE
8
BLACK
6
CONTINUOUS
10
144.746
20
-109.218
11
144.994
21
-107.916
0
LINE
8
BLACK
6
CONTINUOUS
10
144.994
20
-107.916
11
145.205
21
-106.607
0
LINE
8
BLACK
6
CONTINUOUS
10
145.205
20
-106.607
11
145.378
21
-105.292
0
LINE
8
BLACK
6
CONTINUOUS
10
145.378
20
-105.292
11
145.512
21
-103.973
0
LINE
8
BLACK
6
CONTINUOUS
10
145.512
20
-103.973
11
145.608
21
-102.65
0
LINE
8
BLACK
6
CONTINUOUS
10
145.608
20
-102.65
11
145.666
21
-101.326
0
LINE
8
BLACK
6
CONTINUOUS
10
145.666
20
-101.326
11
145.685
21
-100
0
LINE
8
BLACK
6
CONTINUOUS
10
145.685
20
-100
11
145.666
21
-98.6742
0
LINE
8
BLACK
6
CONTINUOUS
10
145.666
20
-98.6742
11
145.608
21
-97.3496
0
LINE
8
BLACK
6
CONTINUOUS
10
145.608
20
-97.3496
11
145.512
21
-96.0271
0
LINE
8
BLACK
6
CONTINUOUS
10
145.512
20
-96.0271
11
145.378
21
-94.7081
0
LINE
8
BLACK
6
CONTINUOUS
10
145.378
20
-94.7081
11
145.205
21
-93.3934
0
LINE
8
BLACK
6
CONTINUOUS
10
145.205
20
-93.3934
11
144.994
21
-92.0844
0
LINE
8
BLACK
6
CONTINUOUS
10
144.994
20
-92.0844
11
144.746
21
-90.782
0
LINE
8
BLACK
6
CONTINUOUS
10
144.746
20
-90.782
11
144.459
21
-89.4874
0
LINE
8
BLACK
6
CONTINUOUS
10
144.459
20
-89.4874
11
144.135
21
-88.2016
0
LINE
8
BLACK
6
CONTINUOUS
10
144.135
20
-88.2016
11
143.775
21
-86.9258
0
LINE
8
BLACK
6
CONTINUOUS
10
143.775
20
-86.9258
11
143.377
21
-85.661
0
LINE
8
BLACK
6
CONTINUOUS
10
143.377
20
-85.661
11
142.942
21
-84.4082
0
LINE
8
BLACK
6
CONTINUOUS
10
142.942
20
-84.4082
11
142.472
21
-83.1686
0
LINE
8
BLACK
6
CONTINUOUS
10
142.472
20
-83.1686
11
141.965
21
-81.9432
0
LINE
8
BLACK
6
CONTINUOUS
10
141.965
20
-81.9432
11
141.424
21
-80.733
0
LINE
8
BLACK
6
CONTINUOUS
10
141.424
20
-80.733
11
140.847
21
-79.539
0
LINE
8
BLACK
6
CONTINUOUS
10
140.847
20
-79.539
11
140.236
21
-78.3622
0
LINE
8
BLACK
6
CONTINUOUS
10
140.236
20
-78.3622
11
139.591
21
-77.2037
0
LINE
8
BLACK
6
CONTINUOUS
10
139.591
20
-77.2037
11
138.913
21
-76.0643
0
LINE
8
BLACK
6
CONTINUOUS
10
138.913
20
-76.0643
11
138.202
21
-74.9452
0
LINE
8
BLACK
6
CONTINUOUS
10
138.202
20
-74.9452
11
137.466
21
-73.8576
0
LINE
8
BLACK
6
CONTINUOUS
10
137.466
20
-73.8576
11
137.457
21
-73.8529
0
LINE
8
BLACK
6
CONTINUOUS
10
137.457
20
-73.8529
11
137.455
21
-73.8499
0
LINE
8
BLACK
6
CONTINUOUS
10
137.455
20
-73.8499
11
137.455
21
-73.8499
0
LINE
8
BLACK
6
CONTINUOUS
10
137.455
20
-73.8499
11
137.455
21
-73.8499
0
LINE
8
BLACK
6
CONTINUOUS
10
137.455
20
-73.8499
11
137.209
21
-73.5232
0
LINE
8
BLACK
6
CONTINUOUS
10
137.209
20
-73.5232
11
136.989
21
-73.1743
0
LINE
8
BLACK
6
CONTINUOUS
10
136.989
20
-73.1743
11
136.798
21
-72.8085
0
LINE
8
BLACK
6
CONTINUOUS
10
136.798
20
-72.8085
11
136.637
21
-72.4284
0
LINE
8
BLACK
6
CONTINUOUS
10
136.637
20
-72.4284
11
136.508
21
-72.0365
0
LINE
8
BLACK
6
CONTINUOUS
10
136.508
20
-72.0365
11
136.412
21
-71.6353
0
LINE
8
BLACK
6
CONTINUOUS
10
136.412
20
-71.6353
11
136.348
21
-71.2276
0
LINE
8
BLACK
6
CONTINUOUS
10
136.348
20
-71.2276
11
136.318
21
-70.8161
0
LINE
8
BLACK
6
CONTINUOUS
10
136.318
20
-70.8161
11
136.322
21
-70.4035
0
LINE
8
BLACK
6
CONTINUOUS
10
136.322
20
-70.4035
11
136.359
21
-69.9926
0
LINE
8
BLACK
6
CONTINUOUS
10
136.359
20
-69.9926
11
136.43
21
-69.5861
0
LINE
8
BLACK
6
CONTINUOUS
10
136.43
20
-69.5861
11
136.534
21
-69.1867
0
LINE
8
BLACK
6
CONTINUOUS
10
136.534
20
-69.1867
11
136.67
21
-68.7972
0
LINE
8
BLACK
6
CONTINUOUS
10
136.67
20
-68.7972
11
136.837
21
-68.42
0
LINE
8
BLACK
6
CONTINUOUS
10
136.837
20
-68.42
11
137.035
21
-68.0578
0
LINE
8
BLACK
6
CONTINUOUS
10
137.035
20
-68.0578
11
137.261
21
-67.7129
0
LINE
8
BLACK
6
CONTINUOUS
10
137.261
20
-67.7129
11
137.515
21
-67.3876
0
LINE
8
BLACK
6
CONTINUOUS
10
137.515
20
-67.3876
11
137.795
21
-67.0842
0
LINE
8
BLACK
6
CONTINUOUS
10
137.795
20
-67.0842
11
137.805
21
-67.08
0
LINE
8
BLACK
6
CONTINUOUS
10
137.805
20
-67.08
11
138.04
21
-66.8188
0
LINE
8
BLACK
6
CONTINUOUS
10
138.04
20
-66.8188
11
138.253
21
-66.5262
0
LINE
8
BLACK
6
CONTINUOUS
10
138.253
20
-66.5262
11
138.434
21
-66.2131
0
LINE
8
BLACK
6
CONTINUOUS
10
138.434
20
-66.2131
11
138.581
21
-65.8827
0
LINE
8
BLACK
6
CONTINUOUS
10
138.581
20
-65.8827
11
138.692
21
-65.5388
0
LINE
8
BLACK
6
CONTINUOUS
10
138.692
20
-65.5388
11
138.768
21
-65.1851
0
LINE
8
BLACK
6
CONTINUOUS
10
138.768
20
-65.1851
11
138.805
21
-64.8255
0
LINE
8
BLACK
6
CONTINUOUS
10
138.805
20
-64.8255
11
138.805
21
-64.4639
0
LINE
8
BLACK
6
CONTINUOUS
10
138.805
20
-64.4639
11
138.768
21
-64.1042
0
LINE
8
BLACK
6
CONTINUOUS
10
138.768
20
-64.1042
11
138.692
21
-63.7505
0
LINE
8
BLACK
6
CONTINUOUS
10
138.692
20
-63.7505
11
138.581
21
-63.4066
0
LINE
8
BLACK
6
CONTINUOUS
10
138.581
20
-63.4066
11
138.434
21
-63.0762
0
LINE
8
BLACK
6
CONTINUOUS
10
138.434
20
-63.0762
11
138.253
21
-62.7631
0
LINE
8
BLACK
6
CONTINUOUS
10
138.253
20
-62.7631
11
138.04
21
-62.4705
0
LINE
8
BLACK
6
CONTINUOUS
10
138.04
20
-62.4705
11
137.798
21
-62.2018
0
LINE
8
BLACK
6
CONTINUOUS
10
137.798
20
-62.2018
11
137.529
21
-61.9598
0
LINE
8
BLACK
6
CONTINUOUS
10
137.529
20
-61.9598
11
137.237
21
-61.7473
0
LINE
8
BLACK
6
CONTINUOUS
10
137.237
20
-61.7473
11
136.924
21
-61.5665
0
LINE
8
BLACK
6
CONTINUOUS
10
136.924
20
-61.5665
11
136.593
21
-61.4194
0
LINE
8
BLACK
6
CONTINUOUS
10
136.593
20
-61.4194
11
136.249
21
-61.3076
0
LINE
8
BLACK
6
CONTINUOUS
10
136.249
20
-61.3076
11
135.896
21
-61.2325
0
LINE
8
BLACK
6
CONTINUOUS
10
135.896
20
-61.2325
11
135.536
21
-61.1947
0
LINE
8
BLACK
6
CONTINUOUS
10
135.536
20
-61.1947
11
135.175
21
-61.1947
0
LINE
8
BLACK
6
CONTINUOUS
10
135.175
20
-61.1947
11
134.815
21
-61.2325
0
LINE
8
BLACK
6
CONTINUOUS
10
134.815
20
-61.2325
11
134.461
21
-61.3076
0
LINE
8
BLACK
6
CONTINUOUS
10
134.461
20
-61.3076
11
134.117
21
-61.4194
0
LINE
8
BLACK
6
CONTINUOUS
10
134.117
20
-61.4194
11
133.787
21
-61.5665
0
LINE
8
BLACK
6
CONTINUOUS
10
133.787
20
-61.5665
11
133.474
21
-61.7473
0
LINE
8
BLACK
6
CONTINUOUS
10
133.474
20
-61.7473
11
133.181
21
-61.9598
0
LINE
8
BLACK
6
CONTINUOUS
10
133.181
20
-61.9598
11
132.92
21
-62.1949
0
LINE
8
BLACK
6
CONTINUOUS
10
132.92
20
-62.1949
11
132.916
21
-62.2049
0
LINE
8
BLACK
6
CONTINUOUS
10
132.916
20
-62.2049
11
132.916
21
-62.2049
0
LINE
8
BLACK
6
CONTINUOUS
10
132.916
20
-62.2049
11
132.916
21
-62.2051
0
LINE
8
BLACK
6
CONTINUOUS
10
132.916
20
-62.2051
11
132.916
21
-62.2051
0
LINE
8
BLACK
6
CONTINUOUS
10
132.916
20
-62.2051
11
132.916
21
-62.2052
0
LINE
8
BLACK
6
CONTINUOUS
10
132.916
20
-62.2052
11
132.613
21
-62.4885
0
LINE
8
BLACK
6
CONTINUOUS
10
132.613
20
-62.4885
11
132.287
21
-62.7463
0
LINE
8
BLACK
6
CONTINUOUS
10
132.287
20
-62.7463
11
131.941
21
-62.9765
0
LINE
8
BLACK
6
CONTINUOUS
10
131.941
20
-62.9765
11
131.578
21
-63.1775
0
LINE
8
BLACK
6
CONTINUOUS
10
131.578
20
-63.1775
11
131.199
21
-63.3481
0
LINE
8
BLACK
6
CONTINUOUS
10
131.199
20
-63.3481
11
130.808
21
-63.487
0
LINE
8
BLACK
6
CONTINUOUS
10
130.808
20
-63.487
11
130.406
21
-63.5933
0
LINE
8
BLACK
6
CONTINUOUS
10
130.406
20
-63.5933
11
129.997
21
-63.6663
0
LINE
8
BLACK
6
CONTINUOUS
10
129.997
20
-63.6663
11
129.584
21
-63.7055
0
LINE
8
BLACK
6
CONTINUOUS
10
129.584
20
-63.7055
11
129.168
21
-63.7107
0
LINE
8
BLACK
6
CONTINUOUS
10
129.168
20
-63.7107
11
128.754
21
-63.6818
0
LINE
8
BLACK
6
CONTINUOUS
10
128.754
20
-63.6818
11
128.343
21
-63.619
0
LINE
8
BLACK
6
CONTINUOUS
10
128.343
20
-63.619
11
127.939
21
-63.5227
0
LINE
8
BLACK
6
CONTINUOUS
10
127.939
20
-63.5227
11
127.545
21
-63.3935
0
LINE
8
BLACK
6
CONTINUOUS
10
127.545
20
-63.3935
11
127.162
21
-63.2325
0
LINE
8
BLACK
6
CONTINUOUS
10
127.162
20
-63.2325
11
126.793
21
-63.0405
0
LINE
8
BLACK
6
CONTINUOUS
10
126.793
20
-63.0405
11
126.442
21
-62.819
0
LINE
8
BLACK
6
CONTINUOUS
10
126.442
20
-62.819
11
126.113
21
-62.5716
0
LINE
8
BLACK
6
CONTINUOUS
10
126.113
20
-62.5716
11
126.113
21
-62.5715
0
LINE
8
BLACK
6
CONTINUOUS
10
126.113
20
-62.5715
11
126.113
21
-62.5715
0
LINE
8
BLACK
6
CONTINUOUS
10
126.113
20
-62.5715
11
126.11
21
-62.5694
0
LINE
8
BLACK
6
CONTINUOUS
10
126.11
20
-62.5694
11
126.11
21
-62.5694
0
LINE
8
BLACK
6
CONTINUOUS
10
126.11
20
-62.5694
11
126.107
21
-62.5629
0
LINE
8
BLACK
6
CONTINUOUS
10
126.107
20
-62.5629
11
125.137
21
-61.8949
0
LINE
8
BLACK
6
CONTINUOUS
10
125.137
20
-61.8949
11
124.143
21
-61.245
0
LINE
8
BLACK
6
CONTINUOUS
10
124.143
20
-61.245
11
123.134
21
-60.6193
0
LINE
8
BLACK
6
CONTINUOUS
10
123.134
20
-60.6193
11
122.117
21
-60.0223
0
LINE
8
BLACK
6
CONTINUOUS
10
122.117
20
-60.0223
11
122.108
21
-60.0212
0
LINE
8
BLACK
6
CONTINUOUS
10
122.108
20
-60.0212
11
122.107
21
-60.0202
0
LINE
8
BLACK
6
CONTINUOUS
10
122.107
20
-60.0202
11
122.106
21
-60.02
0
LINE
8
BLACK
6
CONTINUOUS
10
122.106
20
-60.02
11
122.106
21
-60.02
0
LINE
8
BLACK
6
CONTINUOUS
10
122.106
20
-60.02
11
121.924
21
-59.8866
0
LINE
8
BLACK
6
CONTINUOUS
10
121.924
20
-59.8866
11
121.762
21
-59.7295
0
LINE
8
BLACK
6
CONTINUOUS
10
121.762
20
-59.7295
11
121.623
21
-59.5515
0
LINE
8
BLACK
6
CONTINUOUS
10
121.623
20
-59.5515
11
121.51
21
-59.3562
0
LINE
8
BLACK
6
CONTINUOUS
10
121.51
20
-59.3562
11
121.424
21
-59.1472
0
LINE
8
BLACK
6
CONTINUOUS
10
121.424
20
-59.1472
11
121.369
21
-58.9284
0
LINE
8
BLACK
6
CONTINUOUS
10
121.369
20
-58.9284
11
121.343
21
-58.7041
0
LINE
8
BLACK
6
CONTINUOUS
10
121.343
20
-58.7041
11
121.349
21
-58.4784
0
LINE
8
BLACK
6
CONTINUOUS
10
121.349
20
-58.4784
11
121.386
21
-58.2557
0
LINE
8
BLACK
6
CONTINUOUS
10
121.386
20
-58.2557
11
121.453
21
-58.0402
0
LINE
8
BLACK
6
CONTINUOUS
10
121.453
20
-58.0402
11
121.455
21
-58.0384
0
LINE
8
BLACK
6
CONTINUOUS
10
121.455
20
-58.0384
11
121.455
21
-58.0359
0
LINE
8
BLACK
6
CONTINUOUS
10
121.455
20
-58.0359
11
122.229
21
-56.4905
0
LINE
8
BLACK
6
CONTINUOUS
10
122.229
20
-56.4905
11
122.231
21
-56.4893
0
LINE
8
BLACK
6
CONTINUOUS
10
122.231
20
-56.4893
11
122.231
21
-56.4873
0
LINE
8
BLACK
6
CONTINUOUS
10
122.231
20
-56.4873
11
122.239
21
-56.4815
0
LINE
8
BLACK
6
CONTINUOUS
10
122.239
20
-56.4815
11
122.356
21
-56.2535
0
LINE
8
BLACK
6
CONTINUOUS
10
122.356
20
-56.2535
11
122.446
21
-56.0039
0
LINE
8
BLACK
6
CONTINUOUS
10
122.446
20
-56.0039
11
122.504
21
-55.7449
0
LINE
8
BLACK
6
CONTINUOUS
10
122.504
20
-55.7449
11
122.528
21
-55.4807
0
LINE
8
BLACK
6
CONTINUOUS
10
122.528
20
-55.4807
11
122.518
21
-55.2155
0
LINE
8
BLACK
6
CONTINUOUS
10
122.518
20
-55.2155
11
122.475
21
-54.9538
0
LINE
8
BLACK
6
CONTINUOUS
10
122.475
20
-54.9538
11
122.399
21
-54.6996
0
LINE
8
BLACK
6
CONTINUOUS
10
122.399
20
-54.6996
11
122.291
21
-54.4572
0
LINE
8
BLACK
6
CONTINUOUS
10
122.291
20
-54.4572
11
122.153
21
-54.2306
0
LINE
8
BLACK
6
CONTINUOUS
10
122.153
20
-54.2306
11
121.987
21
-54.0233
0
LINE
8
BLACK
6
CONTINUOUS
10
121.987
20
-54.0233
11
121.797
21
-53.8389
0
LINE
8
BLACK
6
CONTINUOUS
10
121.797
20
-53.8389
11
121.584
21
-53.6802
0
LINE
8
BLACK
6
CONTINUOUS
10
121.584
20
-53.6802
11
121.361
21
-53.5544
0
LINE
8
BLACK
6
CONTINUOUS
10
121.361
20
-53.5544
11
121.352
21
-53.554
0
LINE
8
BLACK
6
CONTINUOUS
10
121.352
20
-53.554
11
121.351
21
-53.5537
0
LINE
8
BLACK
6
CONTINUOUS
10
121.351
20
-53.5537
11
121.351
21
-53.5537
0
LINE
8
BLACK
6
CONTINUOUS
10
121.351
20
-53.5537
11
121.343
21
-53.545
0
LINE
8
BLACK
6
CONTINUOUS
10
121.343
20
-53.545
11
120.073
21
-52.976
0
LINE
8
BLACK
6
CONTINUOUS
10
120.073
20
-52.976
11
118.777
21
-52.4373
0
LINE
8
BLACK
6
CONTINUOUS
10
118.777
20
-52.4373
11
117.467
21
-51.9341
0
LINE
8
BLACK
6
CONTINUOUS
10
117.467
20
-51.9341
11
116.144
21
-51.4667
0
LINE
8
BLACK
6
CONTINUOUS
10
116.144
20
-51.4667
11
114.809
21
-51.0355
0
LINE
8
BLACK
6
CONTINUOUS
10
114.809
20
-51.0355
11
113.462
21
-50.6408
0
LINE
8
BLACK
6
CONTINUOUS
10
113.462
20
-50.6408
11
112.105
21
-50.2828
0
LINE
8
BLACK
6
CONTINUOUS
10
112.105
20
-50.2828
11
110.739
21
-49.9619
0
LINE
8
BLACK
6
CONTINUOUS
10
110.739
20
-49.9619
11
109.365
21
-49.6783
0
LINE
8
BLACK
6
CONTINUOUS
10
109.365
20
-49.6783
11
107.983
21
-49.4321
0
LINE
8
BLACK
6
CONTINUOUS
10
107.983
20
-49.4321
11
106.596
21
-49.2236
0
LINE
8
BLACK
6
CONTINUOUS
10
106.596
20
-49.2236
11
105.203
21
-49.053
0
LINE
8
BLACK
6
CONTINUOUS
10
105.203
20
-49.053
11
103.806
21
-48.9203
0
LINE
8
BLACK
6
CONTINUOUS
10
103.806
20
-48.9203
11
102.406
21
-48.8256
0
LINE
8
BLACK
6
CONTINUOUS
10
102.406
20
-48.8256
11
101.004
21
-48.7691
0
LINE
8
BLACK
6
CONTINUOUS
10
101.004
20
-48.7691
11
99.6005
21
-48.7508
0
LINE
8
BLACK
6
CONTINUOUS
10
99.6005
20
-48.7508
11
98.1974
21
-48.7706
0
LINE
8
BLACK
6
CONTINUOUS
10
84.972
20
-99.1861
11
85.0324
21
-98.4268
0
LINE
8
BLACK
6
CONTINUOUS
10
85.0324
20
-98.4268
11
85.1312
21
-97.6716
0
LINE
8
BLACK
6
CONTINUOUS
10
85.1312
20
-97.6716
11
85.268
21
-96.9223
0
LINE
8
BLACK
6
CONTINUOUS
10
85.268
20
-96.9223
11
85.4426
21
-96.1809
0
LINE
8
BLACK
6
CONTINUOUS
10
85.4426
20
-96.1809
11
85.6545
21
-95.4493
0
LINE
8
BLACK
6
CONTINUOUS
10
85.6545
20
-95.4493
11
85.9031
21
-94.7294
0
LINE
8
BLACK
6
CONTINUOUS
10
85.9031
20
-94.7294
11
86.1878
21
-94.0229
0
LINE
8
BLACK
6
CONTINUOUS
10
86.1878
20
-94.0229
11
86.5079
21
-93.3318
0
LINE
8
BLACK
6
CONTINUOUS
10
86.5079
20
-93.3318
11
86.8625
21
-92.6577
0
LINE
8
BLACK
6
CONTINUOUS
10
86.8625
20
-92.6577
11
87.2508
21
-92.0025
0
LINE
8
BLACK
6
CONTINUOUS
10
87.2508
20
-92.0025
11
87.6718
21
-91.3677
0
LINE
8
BLACK
6
CONTINUOUS
10
87.6718
20
-91.3677
11
88.1243
21
-90.755
0
LINE
8
BLACK
6
CONTINUOUS
10
88.1243
20
-90.755
11
88.6072
21
-90.166
0
LINE
8
BLACK
6
CONTINUOUS
10
88.6072
20
-90.166
11
89.1193
21
-89.6022
0
LINE
8
BLACK
6
CONTINUOUS
10
89.1193
20
-89.6022
11
89.6593
21
-89.0651
0
LINE
8
BLACK
6
CONTINUOUS
10
89.6593
20
-89.0651
11
90.2258
21
-88.5559
0
LINE
8
BLACK
6
CONTINUOUS
10
90.2258
20
-88.5559
11
90.8173
21
-88.076
0
LINE
8
BLACK
6
CONTINUOUS
10
90.8173
20
-88.076
11
91.4323
21
-87.6267
0
LINE
8
BLACK
6
CONTINUOUS
10
91.4323
20
-87.6267
11
92.0693
21
-87.2091
0
LINE
8
BLACK
6
CONTINUOUS
10
92.0693
20
-87.2091
11
92.7266
21
-86.8243
0
LINE
8
BLACK
6
CONTINUOUS
10
92.7266
20
-86.8243
11
93.4025
21
-86.4731
0
LINE
8
BLACK
6
CONTINUOUS
10
93.4025
20
-86.4731
11
94.0953
21
-86.1567
0
LINE
8
BLACK
6
CONTINUOUS
10
94.0953
20
-86.1567
11
94.8033
21
-85.8757
0
LINE
8
BLACK
6
CONTINUOUS
10
94.8033
20
-85.8757
11
95.5245
21
-85.6308
0
LINE
8
BLACK
6
CONTINUOUS
10
95.5245
20
-85.6308
11
96.2572
21
-85.4228
0
LINE
8
BLACK
6
CONTINUOUS
10
96.2572
20
-85.4228
11
96.9995
21
-85.2521
0
LINE
8
BLACK
6
CONTINUOUS
10
96.9995
20
-85.2521
11
97.7495
21
-85.1192
0
LINE
8
BLACK
6
CONTINUOUS
10
97.7495
20
-85.1192
11
98.5052
21
-85.0244
0
LINE
8
BLACK
6
CONTINUOUS
10
98.5052
20
-85.0244
11
99.2648
21
-84.968
0
LINE
8
BLACK
6
CONTINUOUS
10
99.2648
20
-84.968
11
100.026
21
-84.95
0
LINE
8
BLACK
6
CONTINUOUS
10
100.026
20
-84.95
11
100.788
21
-84.9706
0
LINE
8
BLACK
6
CONTINUOUS
10
100.788
20
-84.9706
11
101.547
21
-85.0297
0
LINE
8
BLACK
6
CONTINUOUS
10
101.547
20
-85.0297
11
102.302
21
-85.1272
0
LINE
8
BLACK
6
CONTINUOUS
10
102.302
20
-85.1272
11
103.052
21
-85.2627
0
LINE
8
BLACK
6
CONTINUOUS
10
103.052
20
-85.2627
11
103.794
21
-85.436
0
LINE
8
BLACK
6
CONTINUOUS
10
103.794
20
-85.436
11
104.526
21
-85.6466
0
LINE
8
BLACK
6
CONTINUOUS
10
104.526
20
-85.6466
11
105.246
21
-85.8939
0
LINE
8
BLACK
6
CONTINUOUS
10
105.246
20
-85.8939
11
105.953
21
-86.1774
0
LINE
8
BLACK
6
CONTINUOUS
10
105.953
20
-86.1774
11
106.645
21
-86.4963
0
LINE
8
BLACK
6
CONTINUOUS
10
106.645
20
-86.4963
11
107.319
21
-86.8497
0
LINE
8
BLACK
6
CONTINUOUS
10
107.319
20
-86.8497
11
107.975
21
-87.2369
0
LINE
8
BLACK
6
CONTINUOUS
10
107.975
20
-87.2369
11
108.611
21
-87.6567
0
LINE
8
BLACK
6
CONTINUOUS
10
108.611
20
-87.6567
11
109.224
21
-88.1082
0
LINE
8
BLACK
6
CONTINUOUS
10
109.224
20
-88.1082
11
109.814
21
-88.5901
0
LINE
8
BLACK
6
CONTINUOUS
10
109.814
20
-88.5901
11
110.379
21
-89.1012
0
LINE
8
BLACK
6
CONTINUOUS
10
110.379
20
-89.1012
11
110.917
21
-89.6403
0
LINE
8
BLACK
6
CONTINUOUS
10
110.917
20
-89.6403
11
111.427
21
-90.2058
0
LINE
8
BLACK
6
CONTINUOUS
10
111.427
20
-90.2058
11
111.908
21
-90.7965
0
LINE
8
BLACK
6
CONTINUOUS
10
111.908
20
-90.7965
11
112.358
21
-91.4108
0
LINE
8
BLACK
6
CONTINUOUS
10
112.358
20
-91.4108
11
112.777
21
-92.047
0
LINE
8
BLACK
6
CONTINUOUS
10
112.777
20
-92.047
11
113.163
21
-92.7036
0
LINE
8
BLACK
6
CONTINUOUS
10
113.163
20
-92.7036
11
113.515
21
-93.3789
0
LINE
8
BLACK
6
CONTINUOUS
10
113.515
20
-93.3789
11
113.833
21
-94.0712
0
LINE
8
BLACK
6
CONTINUOUS
10
113.833
20
-94.0712
11
114.115
21
-94.7786
0
LINE
8
BLACK
6
CONTINUOUS
10
114.115
20
-94.7786
11
114.361
21
-95.4994
0
LINE
8
BLACK
6
CONTINUOUS
10
114.361
20
-95.4994
11
114.571
21
-96.2318
0
LINE
8
BLACK
6
CONTINUOUS
10
114.571
20
-96.2318
11
114.743
21
-96.9738
0
LINE
8
BLACK
6
CONTINUOUS
10
114.743
20
-96.9738
11
114.877
21
-97.7235
0
LINE
8
BLACK
6
CONTINUOUS
10
114.877
20
-97.7235
11
114.973
21
-98.4791
0
LINE
8
BLACK
6
CONTINUOUS
10
114.973
20
-98.4791
11
115.031
21
-99.2386
0
LINE
8
BLACK
6
CONTINUOUS
10
115.031
20
-99.2386
11
115.05
21
-100
0
LINE
8
BLACK
6
CONTINUOUS
10
115.05
20
-100
11
115.05
21
-100.105
0
LINE
8
BLACK
6
CONTINUOUS
10
115.05
20
-100.105
11
115.025
21
-100.866
0
LINE
8
BLACK
6
CONTINUOUS
10
115.025
20
-100.866
11
114.962
21
-101.625
0
LINE
8
BLACK
6
CONTINUOUS
10
114.962
20
-101.625
11
114.861
21
-102.38
0
LINE
8
BLACK
6
CONTINUOUS
10
114.861
20
-102.38
11
114.721
21
-103.129
0
LINE
8
BLACK
6
CONTINUOUS
10
114.721
20
-103.129
11
114.544
21
-103.87
0
LINE
8
BLACK
6
CONTINUOUS
10
114.544
20
-103.87
11
114.33
21
-104.601
0
LINE
8
BLACK
6
CONTINUOUS
10
114.33
20
-104.601
11
114.078
21
-105.32
0
LINE
8
BLACK
6
CONTINUOUS
10
114.078
20
-105.32
11
113.791
21
-106.025
0
LINE
8
BLACK
6
CONTINUOUS
10
113.791
20
-106.025
11
113.469
21
-106.715
0
LINE
8
BLACK
6
CONTINUOUS
10
113.469
20
-106.715
11
113.112
21
-107.388
0
LINE
8
BLACK
6
CONTINUOUS
10
113.112
20
-107.388
11
112.721
21
-108.042
0
LINE
8
BLACK
6
CONTINUOUS
10
112.721
20
-108.042
11
112.298
21
-108.675
0
LINE
8
BLACK
6
CONTINUOUS
10
112.298
20
-108.675
11
111.843
21
-109.286
0
LINE
8
BLACK
6
CONTINUOUS
10
111.843
20
-109.286
11
111.358
21
-109.874
0
LINE
8
BLACK
6
CONTINUOUS
10
111.358
20
-109.874
11
110.844
21
-110.436
0
LINE
8
BLACK
6
CONTINUOUS
10
110.844
20
-110.436
11
110.302
21
-110.971
0
LINE
8
BLACK
6
CONTINUOUS
10
110.302
20
-110.971
11
109.734
21
-111.478
0
LINE
8
BLACK
6
CONTINUOUS
10
109.734
20
-111.478
11
109.141
21
-111.956
0
LINE
8
BLACK
6
CONTINUOUS
10
109.141
20
-111.956
11
108.524
21
-112.403
0
LINE
8
BLACK
6
CONTINUOUS
10
108.524
20
-112.403
11
107.886
21
-112.818
0
LINE
8
BLACK
6
CONTINUOUS
10
107.886
20
-112.818
11
107.227
21
-113.201
0
LINE
8
BLACK
6
CONTINUOUS
10
107.227
20
-113.201
11
106.55
21
-113.55
0
LINE
8
BLACK
6
CONTINUOUS
10
106.55
20
-113.55
11
105.856
21
-113.864
0
LINE
8
BLACK
6
CONTINUOUS
10
105.856
20
-113.864
11
105.147
21
-114.142
0
LINE
8
BLACK
6
CONTINUOUS
10
105.147
20
-114.142
11
104.425
21
-114.385
0
LINE
8
BLACK
6
CONTINUOUS
10
104.425
20
-114.385
11
103.692
21
-114.59
0
LINE
8
BLACK
6
CONTINUOUS
10
103.692
20
-114.59
11
102.949
21
-114.758
0
LINE
8
BLACK
6
CONTINUOUS
10
102.949
20
-114.758
11
102.199
21
-114.889
0
LINE
8
BLACK
6
CONTINUOUS
10
102.199
20
-114.889
11
101.442
21
-114.981
0
LINE
8
BLACK
6
CONTINUOUS
10
101.442
20
-114.981
11
100.683
21
-115.035
0
LINE
8
BLACK
6
CONTINUOUS
10
100.683
20
-115.035
11
99.9212
21
-115.05
0
LINE
8
BLACK
6
CONTINUOUS
10
99.9212
20
-115.05
11
99.1599
21
-115.027
0
LINE
8
BLACK
6
CONTINUOUS
10
99.1599
20
-115.027
11
98.4007
21
-114.965
0
LINE
8
BLACK
6
CONTINUOUS
10
98.4007
20
-114.965
11
97.6457
21
-114.865
0
LINE
8
BLACK
6
CONTINUOUS
10
97.6457
20
-114.865
11
96.8966
21
-114.727
0
LINE
8
BLACK
6
CONTINUOUS
10
96.8966
20
-114.727
11
96.1555
21
-114.551
0
LINE
8
BLACK
6
CONTINUOUS
10
96.1555
20
-114.551
11
95.4243
21
-114.338
0
LINE
8
BLACK
6
CONTINUOUS
10
95.4243
20
-114.338
11
94.7048
21
-114.088
0
LINE
8
BLACK
6
CONTINUOUS
10
94.7048
20
-114.088
11
93.9988
21
-113.802
0
LINE
8
BLACK
6
CONTINUOUS
10
93.9988
20
-113.802
11
93.3082
21
-113.48
0
LINE
8
BLACK
6
CONTINUOUS
10
93.3082
20
-113.48
11
92.6348
21
-113.125
0
LINE
8
BLACK
6
CONTINUOUS
10
92.6348
20
-113.125
11
91.9802
21
-112.735
0
LINE
8
BLACK
6
CONTINUOUS
10
91.9802
20
-112.735
11
91.3462
21
-112.313
0
LINE
8
BLACK
6
CONTINUOUS
10
91.3462
20
-112.313
11
90.7343
21
-111.86
0
LINE
8
BLACK
6
CONTINUOUS
10
90.7343
20
-111.86
11
90.1462
21
-111.376
0
LINE
8
BLACK
6
CONTINUOUS
10
90.1462
20
-111.376
11
89.5832
21
-110.862
0
LINE
8
BLACK
6
CONTINUOUS
10
89.5832
20
-110.862
11
89.047
21
-110.322
0
LINE
8
BLACK
6
CONTINUOUS
10
89.047
20
-110.322
11
88.5388
21
-109.754
0
LINE
8
BLACK
6
CONTINUOUS
10
88.5388
20
-109.754
11
88.06
21
-109.162
0
LINE
8
BLACK
6
CONTINUOUS
10
88.06
20
-109.162
11
87.6118
21
-108.546
0
LINE
8
BLACK
6
CONTINUOUS
10
87.6118
20
-108.546
11
87.1953
21
-107.908
0
LINE
8
BLACK
6
CONTINUOUS
10
87.1953
20
-107.908
11
86.8116
21
-107.25
0
LINE
8
BLACK
6
CONTINUOUS
10
86.8116
20
-107.25
11
86.4617
21
-106.574
0
LINE
8
BLACK
6
CONTINUOUS
10
86.4617
20
-106.574
11
86.1464
21
-105.881
0
LINE
8
BLACK
6
CONTINUOUS
10
86.1464
20
-105.881
11
85.8666
21
-105.172
0
LINE
8
BLACK
6
CONTINUOUS
10
85.8666
20
-105.172
11
85.6231
21
-104.45
0
LINE
8
BLACK
6
CONTINUOUS
10
85.6231
20
-104.45
11
85.4163
21
-103.717
0
LINE
8
BLACK
6
CONTINUOUS
10
85.4163
20
-103.717
11
85.2469
21
-102.975
0
LINE
8
BLACK
6
CONTINUOUS
10
85.2469
20
-102.975
11
85.1153
21
-102.225
0
LINE
8
BLACK
6
CONTINUOUS
10
85.1153
20
-102.225
11
85.0218
21
-101.469
0
LINE
8
BLACK
6
CONTINUOUS
10
85.0218
20
-101.469
11
84.9667
21
-100.709
0
LINE
8
BLACK
6
CONTINUOUS
10
84.9667
20
-100.709
11
84.9501
21
-99.9478
0
LINE
8
BLACK
6
CONTINUOUS
10
84.9501
20
-99.9478
11
84.9501
21
-99.9475
0
LINE
8
BLACK
6
CONTINUOUS
10
84.9501
20
-99.9475
11
84.972
21
-99.1861
0
LINE
8
BLACK
6
CONTINUOUS
10
85.1164
20
-101.459
11
85.2093
21
-102.21
0
LINE
8
BLACK
6
CONTINUOUS
10
85.2093
20
-102.21
11
85.3401
21
-102.956
0
LINE
8
BLACK
6
CONTINUOUS
10
85.3401
20
-102.956
11
85.5084
21
-103.694
0
LINE
8
BLACK
6
CONTINUOUS
10
85.5084
20
-103.694
11
85.7139
21
-104.422
0
LINE
8
BLACK
6
CONTINUOUS
10
85.7139
20
-104.422
11
85.9559
21
-105.139
0
LINE
8
BLACK
6
CONTINUOUS
10
85.9559
20
-105.139
11
86.2339
21
-105.843
0
LINE
8
BLACK
6
CONTINUOUS
10
86.2339
20
-105.843
11
86.5472
21
-106.532
0
LINE
8
BLACK
6
CONTINUOUS
10
86.5472
20
-106.532
11
86.8949
21
-107.205
0
LINE
8
BLACK
6
CONTINUOUS
10
86.8949
20
-107.205
11
87.2762
21
-107.858
0
LINE
8
BLACK
6
CONTINUOUS
10
87.2762
20
-107.858
11
87.69
21
-108.492
0
LINE
8
BLACK
6
CONTINUOUS
10
87.69
20
-108.492
11
88.1354
21
-109.104
0
LINE
8
BLACK
6
CONTINUOUS
10
88.1354
20
-109.104
11
88.6112
21
-109.693
0
LINE
8
BLACK
6
CONTINUOUS
10
88.6112
20
-109.693
11
89.1162
21
-110.256
0
LINE
8
BLACK
6
CONTINUOUS
10
89.1162
20
-110.256
11
89.649
21
-110.794
0
LINE
8
BLACK
6
CONTINUOUS
10
89.649
20
-110.794
11
90.2084
21
-111.304
0
LINE
8
BLACK
6
CONTINUOUS
10
90.2084
20
-111.304
11
90.7928
21
-111.785
0
LINE
8
BLACK
6
CONTINUOUS
10
90.7928
20
-111.785
11
91.4008
21
-112.235
0
LINE
8
BLACK
6
CONTINUOUS
10
91.4008
20
-112.235
11
92.0309
21
-112.655
0
LINE
8
BLACK
6
CONTINUOUS
10
92.0309
20
-112.655
11
92.6813
21
-113.042
0
LINE
8
BLACK
6
CONTINUOUS
10
92.6813
20
-113.042
11
93.3505
21
-113.395
0
LINE
8
BLACK
6
CONTINUOUS
10
93.3505
20
-113.395
11
94.0367
21
-113.715
0
LINE
8
BLACK
6
CONTINUOUS
10
94.0367
20
-113.715
11
94.7382
21
-113.999
0
LINE
8
BLACK
6
CONTINUOUS
10
94.7382
20
-113.999
11
95.4532
21
-114.247
0
LINE
8
BLACK
6
CONTINUOUS
10
95.4532
20
-114.247
11
96.1798
21
-114.459
0
LINE
8
BLACK
6
CONTINUOUS
10
96.1798
20
-114.459
11
96.9162
21
-114.634
0
LINE
8
BLACK
6
CONTINUOUS
10
96.9162
20
-114.634
11
97.6605
21
-114.771
0
LINE
8
BLACK
6
CONTINUOUS
10
97.6605
20
-114.771
11
98.4108
21
-114.87
0
LINE
8
BLACK
6
CONTINUOUS
10
98.4108
20
-114.87
11
99.1652
21
-114.932
0
LINE
8
BLACK
6
CONTINUOUS
10
99.1652
20
-114.932
11
99.9217
21
-114.955
0
LINE
8
BLACK
6
CONTINUOUS
10
99.9217
20
-114.955
11
100.678
21
-114.94
0
LINE
8
BLACK
6
CONTINUOUS
10
100.678
20
-114.94
11
101.433
21
-114.886
0
LINE
8
BLACK
6
CONTINUOUS
10
101.433
20
-114.886
11
102.185
21
-114.795
0
LINE
8
BLACK
6
CONTINUOUS
10
102.185
20
-114.795
11
102.93
21
-114.665
0
LINE
8
BLACK
6
CONTINUOUS
10
102.93
20
-114.665
11
103.669
21
-114.498
0
LINE
8
BLACK
6
CONTINUOUS
10
103.669
20
-114.498
11
104.397
21
-114.294
0
LINE
8
BLACK
6
CONTINUOUS
10
104.397
20
-114.294
11
105.115
21
-114.053
0
LINE
8
BLACK
6
CONTINUOUS
10
105.115
20
-114.053
11
105.819
21
-113.776
0
LINE
8
BLACK
6
CONTINUOUS
10
105.819
20
-113.776
11
106.509
21
-113.464
0
LINE
8
BLACK
6
CONTINUOUS
10
106.509
20
-113.464
11
107.182
21
-113.118
0
LINE
8
BLACK
6
CONTINUOUS
10
107.182
20
-113.118
11
107.836
21
-112.738
0
LINE
8
BLACK
6
CONTINUOUS
10
107.836
20
-112.738
11
108.471
21
-112.325
0
LINE
8
BLACK
6
CONTINUOUS
10
108.471
20
-112.325
11
109.083
21
-111.88
0
LINE
8
BLACK
6
CONTINUOUS
10
109.083
20
-111.88
11
109.673
21
-111.406
0
LINE
8
BLACK
6
CONTINUOUS
10
109.673
20
-111.406
11
110.237
21
-110.902
0
LINE
8
BLACK
6
CONTINUOUS
10
110.237
20
-110.902
11
110.776
21
-110.37
0
LINE
8
BLACK
6
CONTINUOUS
10
110.776
20
-110.37
11
111.287
21
-109.811
0
LINE
8
BLACK
6
CONTINUOUS
10
111.287
20
-109.811
11
111.769
21
-109.228
0
LINE
8
BLACK
6
CONTINUOUS
10
111.769
20
-109.228
11
112.22
21
-108.621
0
LINE
8
BLACK
6
CONTINUOUS
10
112.22
20
-108.621
11
112.641
21
-107.991
0
LINE
8
BLACK
6
CONTINUOUS
10
112.641
20
-107.991
11
113.029
21
-107.341
0
LINE
8
BLACK
6
CONTINUOUS
10
113.029
20
-107.341
11
113.384
21
-106.673
0
LINE
8
BLACK
6
CONTINUOUS
10
113.384
20
-106.673
11
113.704
21
-105.987
0
LINE
8
BLACK
6
CONTINUOUS
10
113.704
20
-105.987
11
113.99
21
-105.286
0
LINE
8
BLACK
6
CONTINUOUS
10
113.99
20
-105.286
11
114.239
21
-104.572
0
LINE
8
BLACK
6
CONTINUOUS
10
114.239
20
-104.572
11
114.452
21
-103.845
0
LINE
8
BLACK
6
CONTINUOUS
10
114.452
20
-103.845
11
114.628
21
-103.109
0
LINE
8
BLACK
6
CONTINUOUS
10
114.628
20
-103.109
11
114.767
21
-102.365
0
LINE
8
BLACK
6
CONTINUOUS
10
114.767
20
-102.365
11
114.867
21
-101.615
0
LINE
8
BLACK
6
CONTINUOUS
10
114.867
20
-101.615
11
114.93
21
-100.861
0
LINE
8
BLACK
6
CONTINUOUS
10
114.93
20
-100.861
11
114.955
21
-100.104
0
LINE
8
BLACK
6
CONTINUOUS
10
114.955
20
-100.104
11
114.955
21
-100
0
LINE
8
BLACK
6
CONTINUOUS
10
114.955
20
-100
11
114.936
21
-99.2434
0
LINE
8
BLACK
6
CONTINUOUS
10
114.936
20
-99.2434
11
114.878
21
-98.4887
0
LINE
8
BLACK
6
CONTINUOUS
10
114.878
20
-98.4887
11
114.783
21
-97.7379
0
LINE
8
BLACK
6
CONTINUOUS
10
114.783
20
-97.7379
11
114.65
21
-96.9929
0
LINE
8
BLACK
6
CONTINUOUS
10
114.65
20
-96.9929
11
114.479
21
-96.2556
0
LINE
8
BLACK
6
CONTINUOUS
10
114.479
20
-96.2556
11
114.271
21
-95.5279
0
LINE
8
BLACK
6
CONTINUOUS
10
114.271
20
-95.5279
11
114.026
21
-94.8116
0
LINE
8
BLACK
6
CONTINUOUS
10
114.026
20
-94.8116
11
113.746
21
-94.1086
0
LINE
8
BLACK
6
CONTINUOUS
10
113.746
20
-94.1086
11
113.43
21
-93.4207
0
LINE
8
BLACK
6
CONTINUOUS
10
113.43
20
-93.4207
11
113.08
21
-92.7497
0
LINE
8
BLACK
6
CONTINUOUS
10
113.08
20
-92.7497
11
112.696
21
-92.0972
0
LINE
8
BLACK
6
CONTINUOUS
10
112.696
20
-92.0972
11
112.28
21
-91.465
0
LINE
8
BLACK
6
CONTINUOUS
10
112.28
20
-91.465
11
111.833
21
-90.8546
0
LINE
8
BLACK
6
CONTINUOUS
10
111.833
20
-90.8546
11
111.355
21
-90.2677
0
LINE
8
BLACK
6
CONTINUOUS
10
111.355
20
-90.2677
11
110.848
21
-89.7057
0
LINE
8
BLACK
6
CONTINUOUS
10
110.848
20
-89.7057
11
110.313
21
-89.17
0
LINE
8
BLACK
6
CONTINUOUS
10
110.313
20
-89.17
11
109.752
21
-88.6621
0
LINE
8
BLACK
6
CONTINUOUS
10
109.752
20
-88.6621
11
109.166
21
-88.1833
0
LINE
8
BLACK
6
CONTINUOUS
10
109.166
20
-88.1833
11
108.556
21
-87.7347
0
LINE
8
BLACK
6
CONTINUOUS
10
108.556
20
-87.7347
11
107.925
21
-87.3175
0
LINE
8
BLACK
6
CONTINUOUS
10
107.925
20
-87.3175
11
107.273
21
-86.9328
0
LINE
8
BLACK
6
CONTINUOUS
10
107.273
20
-86.9328
11
106.603
21
-86.5815
0
LINE
8
BLACK
6
CONTINUOUS
10
106.603
20
-86.5815
11
105.915
21
-86.2647
0
LINE
8
BLACK
6
CONTINUOUS
10
105.915
20
-86.2647
11
105.213
21
-85.983
0
LINE
8
BLACK
6
CONTINUOUS
10
105.213
20
-85.983
11
104.497
21
-85.7372
0
LINE
8
BLACK
6
CONTINUOUS
10
104.497
20
-85.7372
11
103.77
21
-85.5279
0
LINE
8
BLACK
6
CONTINUOUS
10
103.77
20
-85.5279
11
103.033
21
-85.3558
0
LINE
8
BLACK
6
CONTINUOUS
10
103.033
20
-85.3558
11
102.288
21
-85.2211
0
LINE
8
BLACK
6
CONTINUOUS
10
102.288
20
-85.2211
11
101.537
21
-85.1243
0
LINE
8
BLACK
6
CONTINUOUS
10
101.537
20
-85.1243
11
100.783
21
-85.0655
0
LINE
8
BLACK
6
CONTINUOUS
10
100.783
20
-85.0655
11
100.026
21
-85.0451
0
LINE
8
BLACK
6
CONTINUOUS
10
100.026
20
-85.0451
11
99.2695
21
-85.0629
0
LINE
8
BLACK
6
CONTINUOUS
10
99.2695
20
-85.0629
11
98.5147
21
-85.119
0
LINE
8
BLACK
6
CONTINUOUS
10
98.5147
20
-85.119
11
97.7637
21
-85.2132
0
LINE
8
BLACK
6
CONTINUOUS
10
97.7637
20
-85.2132
11
97.0185
21
-85.3453
0
LINE
8
BLACK
6
CONTINUOUS
10
97.0185
20
-85.3453
11
96.2809
21
-85.5149
0
LINE
8
BLACK
6
CONTINUOUS
10
96.2809
20
-85.5149
11
95.5528
21
-85.7216
0
LINE
8
BLACK
6
CONTINUOUS
10
95.5528
20
-85.7216
11
94.8361
21
-85.9649
0
LINE
8
BLACK
6
CONTINUOUS
10
94.8361
20
-85.9649
11
94.1326
21
-86.2441
0
LINE
8
BLACK
6
CONTINUOUS
10
94.1326
20
-86.2441
11
93.4442
21
-86.5586
0
LINE
8
BLACK
6
CONTINUOUS
10
93.4442
20
-86.5586
11
92.7725
21
-86.9075
0
LINE
8
BLACK
6
CONTINUOUS
10
92.7725
20
-86.9075
11
92.1194
21
-87.2899
0
LINE
8
BLACK
6
CONTINUOUS
10
92.1194
20
-87.2899
11
91.4864
21
-87.7049
0
LINE
8
BLACK
6
CONTINUOUS
10
91.4864
20
-87.7049
11
90.8753
21
-88.1513
0
LINE
8
BLACK
6
CONTINUOUS
10
90.8753
20
-88.1513
11
90.2875
21
-88.6282
0
LINE
8
BLACK
6
CONTINUOUS
10
90.2875
20
-88.6282
11
89.7246
21
-89.1341
0
LINE
8
BLACK
6
CONTINUOUS
10
89.7246
20
-89.1341
11
89.1881
21
-89.6679
0
LINE
8
BLACK
6
CONTINUOUS
10
89.1881
20
-89.6679
11
88.6792
21
-90.2281
0
LINE
8
BLACK
6
CONTINUOUS
10
88.6792
20
-90.2281
11
88.1993
21
-90.8134
0
LINE
8
BLACK
6
CONTINUOUS
10
88.1993
20
-90.8134
11
87.7496
21
-91.4222
0
LINE
8
BLACK
6
CONTINUOUS
10
87.7496
20
-91.4222
11
87.3313
21
-92.053
0
LINE
8
BLACK
6
CONTINUOUS
10
87.3313
20
-92.053
11
86.9455
21
-92.7041
0
LINE
8
BLACK
6
CONTINUOUS
10
86.9455
20
-92.7041
11
86.5931
21
-93.3739
0
LINE
8
BLACK
6
CONTINUOUS
10
86.5931
20
-93.3739
11
86.275
21
-94.0607
0
LINE
8
BLACK
6
CONTINUOUS
10
86.275
20
-94.0607
11
85.9921
21
-94.7627
0
LINE
8
BLACK
6
CONTINUOUS
10
85.9921
20
-94.7627
11
85.7451
21
-95.4781
0
LINE
8
BLACK
6
CONTINUOUS
10
85.7451
20
-95.4781
11
85.5346
21
-96.2051
0
LINE
8
BLACK
6
CONTINUOUS
10
85.5346
20
-96.2051
11
85.3611
21
-96.9418
0
LINE
8
BLACK
6
CONTINUOUS
10
85.3611
20
-96.9418
11
85.2251
21
-97.6863
0
LINE
8
BLACK
6
CONTINUOUS
10
85.2251
20
-97.6863
11
85.127
21
-98.4368
0
LINE
8
BLACK
6
CONTINUOUS
10
85.127
20
-98.4368
11
85.0669
21
-99.1913
0
LINE
8
BLACK
6
CONTINUOUS
10
85.0669
20
-99.1913
11
85.0451
21
-99.9478
0
LINE
8
BLACK
6
CONTINUOUS
10
85.0451
20
-99.9478
11
85.0616
21
-100.704
0
LINE
8
BLACK
6
CONTINUOUS
10
85.0616
20
-100.704
11
85.1164
21
-101.459
  0
ENDSEC
  0
EOF
